<svg width="185" height="185" viewBox="0 0 185 185" fill="none" xmlns="http://www.w3.org/2000/svg">
<g filter="url(#filter0_d_563_3515)">
<circle cx="92.5" cy="88.5" r="80.5" fill="#FF5A29" fill-opacity="0.15"/>
<circle cx="92.6703" cy="88.3292" r="61.5287" fill="#FF5A29" fill-opacity="0.8"/>
<path d="M64.1043 119.435C63.518 119.435 62.9904 119.23 62.5213 118.82C62.111 118.41 61.9058 117.882 61.9058 117.238V60.1038C61.9058 59.4592 62.111 58.9319 62.5213 58.5217C62.9904 58.1115 63.518 57.9064 64.1043 57.9064H73.6019C74.5399 57.9064 75.2434 58.1701 75.7124 58.6975C76.2401 59.1662 76.5625 59.5471 76.6798 59.8401L92.1574 87.6159L107.635 59.8401C107.811 59.5471 108.104 59.1662 108.514 58.6975C108.983 58.1701 109.716 57.9064 110.713 57.9064H120.122C120.767 57.9064 121.295 58.1115 121.705 58.5217C122.174 58.9319 122.409 59.4592 122.409 60.1038V117.238C122.409 117.882 122.174 118.41 121.705 118.82C121.295 119.23 120.767 119.435 120.122 119.435H109.658C109.013 119.435 108.456 119.23 107.987 118.82C107.576 118.41 107.371 117.882 107.371 117.238V84.2758L97.4338 102.646C97.1993 103.174 96.8475 103.643 96.3785 104.053C95.9095 104.463 95.2646 104.668 94.4438 104.668H89.8709C89.0501 104.668 88.4052 104.463 87.9362 104.053C87.4672 103.643 87.0861 103.174 86.793 102.646L76.8557 84.2758V117.238C76.8557 117.882 76.6505 118.41 76.2401 118.82C75.8297 119.23 75.3021 119.435 74.6572 119.435H64.1043Z" fill="white"/>
</g>
<defs>
<filter id="filter0_d_563_3515" x="0" y="0" width="185" height="185" filterUnits="userSpaceOnUse" color-interpolation-filters="sRGB">
<feFlood flood-opacity="0" result="BackgroundImageFix"/>
<feColorMatrix in="SourceAlpha" type="matrix" values="0 0 0 0 0 0 0 0 0 0 0 0 0 0 0 0 0 0 127 0" result="hardAlpha"/>
<feOffset dy="4"/>
<feGaussianBlur stdDeviation="6"/>
<feComposite in2="hardAlpha" operator="out"/>
<feColorMatrix type="matrix" values="0 0 0 0 0 0 0 0 0 0 0 0 0 0 0 0 0 0 0.08 0"/>
<feBlend mode="normal" in2="BackgroundImageFix" result="effect1_dropShadow_563_3515"/>
<feBlend mode="normal" in="SourceGraphic" in2="effect1_dropShadow_563_3515" result="shape"/>
</filter>
</defs>
</svg>
