<svg width="125" height="18" viewBox="0 0 125 18" fill="none" xmlns="http://www.w3.org/2000/svg">
<path d="M1.185 17C1.03167 17 0.893667 16.9463 0.771 16.839C0.663667 16.7317 0.61 16.5937 0.61 16.425V1.475C0.61 1.30633 0.663667 1.16833 0.771 1.061C0.893667 0.953666 1.03167 0.899999 1.185 0.899999H3.669C3.91433 0.899999 4.09833 0.968999 4.221 1.107C4.359 1.22967 4.44333 1.32933 4.474 1.406L8.522 8.674L12.57 1.406C12.616 1.32933 12.6927 1.22967 12.8 1.107C12.9227 0.968999 13.1143 0.899999 13.375 0.899999H15.836C16.0047 0.899999 16.1427 0.953666 16.25 1.061C16.3727 1.16833 16.434 1.30633 16.434 1.475V16.425C16.434 16.5937 16.3727 16.7317 16.25 16.839C16.1427 16.9463 16.0047 17 15.836 17H13.099C12.9303 17 12.7847 16.9463 12.662 16.839C12.5547 16.7317 12.501 16.5937 12.501 16.425V7.8L9.902 12.607C9.84067 12.745 9.74867 12.8677 9.626 12.975C9.50333 13.0823 9.33467 13.136 9.12 13.136H7.924C7.70933 13.136 7.54067 13.0823 7.418 12.975C7.29533 12.8677 7.19567 12.745 7.119 12.607L4.52 7.8V16.425C4.52 16.5937 4.46633 16.7317 4.359 16.839C4.25167 16.9463 4.11367 17 3.945 17H1.185ZM22.2794 17.23C21.4514 17.23 20.7077 17.0767 20.0484 16.77C19.4044 16.448 18.8907 16.0187 18.5074 15.482C18.1241 14.9453 17.9324 14.3397 17.9324 13.665C17.9324 12.5763 18.3771 11.7177 19.2664 11.089C20.1557 10.445 21.3364 10.008 22.8084 9.778L25.6834 9.341V9.019C25.6834 8.467 25.5684 8.04533 25.3384 7.754C25.1084 7.46267 24.6867 7.317 24.0734 7.317C23.6441 7.317 23.2914 7.40133 23.0154 7.57C22.7547 7.73867 22.5477 7.96867 22.3944 8.26C22.2564 8.45933 22.0647 8.559 21.8194 8.559H19.2434C19.0747 8.559 18.9444 8.513 18.8524 8.421C18.7604 8.31367 18.7221 8.191 18.7374 8.053C18.7374 7.777 18.8371 7.46267 19.0364 7.11C19.2511 6.742 19.5731 6.38167 20.0024 6.029C20.4317 5.67633 20.9837 5.385 21.6584 5.155C22.3331 4.925 23.1457 4.81 24.0964 4.81C25.0931 4.81 25.9441 4.925 26.6494 5.155C27.3547 5.385 27.9221 5.707 28.3514 6.121C28.7961 6.535 29.1257 7.02567 29.3404 7.593C29.5551 8.145 29.6624 8.75833 29.6624 9.433V16.425C29.6624 16.5937 29.6011 16.7317 29.4784 16.839C29.3711 16.9463 29.2407 17 29.0874 17H26.4194C26.2507 17 26.1127 16.9463 26.0054 16.839C25.8981 16.7317 25.8444 16.5937 25.8444 16.425V15.62C25.6451 15.9113 25.3767 16.1797 25.0394 16.425C24.7021 16.6703 24.3034 16.862 23.8434 17C23.3987 17.1533 22.8774 17.23 22.2794 17.23ZM23.3604 14.608C23.8051 14.608 24.2037 14.516 24.5564 14.332C24.9244 14.1327 25.2081 13.8337 25.4074 13.435C25.6221 13.021 25.7294 12.5073 25.7294 11.894V11.572L23.7744 11.917C23.0537 12.0397 22.5247 12.2313 22.1874 12.492C21.8654 12.7373 21.7044 13.0287 21.7044 13.366C21.7044 13.6267 21.7811 13.849 21.9344 14.033C22.0877 14.217 22.2871 14.3627 22.5324 14.47C22.7777 14.562 23.0537 14.608 23.3604 14.608ZM31.0848 17C30.9468 17 30.8242 16.954 30.7168 16.862C30.6248 16.7547 30.5788 16.632 30.5788 16.494C30.5788 16.448 30.5865 16.3943 30.6018 16.333C30.6172 16.2563 30.6478 16.1873 30.6938 16.126L34.5348 10.859L31.0388 5.914C30.9928 5.85267 30.9545 5.79133 30.9238 5.73C30.9085 5.66867 30.9008 5.60733 30.9008 5.546C30.9008 5.408 30.9545 5.293 31.0618 5.201C31.1692 5.09367 31.2918 5.04 31.4298 5.04H34.2358C34.4352 5.04 34.5808 5.086 34.6728 5.178C34.7802 5.27 34.8568 5.35433 34.9028 5.431L37.0418 8.398L39.1578 5.454C39.2192 5.37733 39.2958 5.293 39.3878 5.201C39.4952 5.09367 39.6485 5.04 39.8478 5.04H42.5388C42.6768 5.04 42.7918 5.09367 42.8838 5.201C42.9912 5.293 43.0448 5.408 43.0448 5.546C43.0448 5.60733 43.0372 5.66867 43.0218 5.73C43.0065 5.79133 42.9758 5.85267 42.9298 5.914L39.3418 10.859L43.2288 16.126C43.2902 16.1873 43.3285 16.2487 43.3438 16.31C43.3592 16.3713 43.3668 16.4327 43.3668 16.494C43.3668 16.632 43.3132 16.7547 43.2058 16.862C43.1138 16.954 42.9912 17 42.8378 17H39.9168C39.7328 17 39.5948 16.9617 39.5028 16.885C39.4108 16.793 39.3342 16.7087 39.2728 16.632L36.9498 13.481L34.6038 16.632C34.5425 16.6933 34.4658 16.77 34.3738 16.862C34.2818 16.954 34.1362 17 33.9368 17H31.0848ZM45.2273 17C45.0586 17 44.9206 16.9463 44.8133 16.839C44.706 16.7317 44.6523 16.5937 44.6523 16.425V1.475C44.6523 1.30633 44.706 1.16833 44.8133 1.061C44.9206 0.953666 45.0586 0.899999 45.2273 0.899999H51.4833C53.4613 0.899999 55.0176 1.36 56.1523 2.28C57.3023 3.18467 57.8773 4.47267 57.8773 6.144C57.8773 7.23267 57.609 8.15267 57.0723 8.904C56.551 9.65533 55.861 10.2227 55.0023 10.606L58.1763 16.264C58.2223 16.356 58.2453 16.4403 58.2453 16.517C58.2453 16.6397 58.1916 16.7547 58.0843 16.862C57.9923 16.954 57.8773 17 57.7393 17H54.7033C54.412 17 54.1973 16.931 54.0593 16.793C53.9213 16.6397 53.8216 16.5017 53.7603 16.379L51.1383 11.319H48.7693V16.425C48.7693 16.5937 48.7156 16.7317 48.6083 16.839C48.501 16.9463 48.363 17 48.1943 17H45.2273ZM48.7693 8.076H51.4373C52.158 8.076 52.6946 7.89967 53.0473 7.547C53.4153 7.19433 53.5993 6.71133 53.5993 6.098C53.5993 5.5 53.423 5.017 53.0703 4.649C52.733 4.281 52.1886 4.097 51.4373 4.097H48.7693V8.076ZM64.9744 17.23C63.1651 17.23 61.7238 16.7393 60.6504 15.758C59.5771 14.7767 59.0174 13.32 58.9714 11.388C58.9714 11.2807 58.9714 11.1427 58.9714 10.974C58.9714 10.8053 58.9714 10.675 58.9714 10.583C59.0174 9.37167 59.2858 8.33667 59.7764 7.478C60.2824 6.604 60.9724 5.94467 61.8464 5.5C62.7358 5.04 63.7708 4.81 64.9514 4.81C66.3008 4.81 67.4124 5.07833 68.2864 5.615C69.1758 6.15167 69.8428 6.88 70.2874 7.8C70.7321 8.72 70.9544 9.77033 70.9544 10.951V11.503C70.9544 11.6717 70.8931 11.8097 70.7704 11.917C70.6631 12.0243 70.5328 12.078 70.3794 12.078H63.0194C63.0194 12.0933 63.0194 12.1163 63.0194 12.147C63.0194 12.1777 63.0194 12.2083 63.0194 12.239C63.0348 12.6837 63.1114 13.09 63.2494 13.458C63.3874 13.826 63.6021 14.1173 63.8934 14.332C64.1848 14.5467 64.5374 14.654 64.9514 14.654C65.2581 14.654 65.5111 14.608 65.7104 14.516C65.9251 14.4087 66.1014 14.2937 66.2394 14.171C66.3774 14.033 66.4848 13.918 66.5614 13.826C66.6994 13.6727 66.8068 13.5807 66.8834 13.55C66.9754 13.504 67.1134 13.481 67.2974 13.481H70.1494C70.3028 13.481 70.4254 13.527 70.5174 13.619C70.6248 13.6957 70.6708 13.8107 70.6554 13.964C70.6401 14.2247 70.5098 14.539 70.2644 14.907C70.0191 15.275 69.6588 15.643 69.1834 16.011C68.7234 16.3637 68.1408 16.655 67.4354 16.885C66.7301 17.115 65.9098 17.23 64.9744 17.23ZM63.0194 9.801H66.9064V9.755C66.9064 9.26433 66.8298 8.835 66.6764 8.467C66.5384 8.099 66.3161 7.81533 66.0094 7.616C65.7181 7.41667 65.3654 7.317 64.9514 7.317C64.5374 7.317 64.1848 7.41667 63.8934 7.616C63.6174 7.81533 63.4028 8.099 63.2494 8.467C63.0961 8.835 63.0194 9.26433 63.0194 9.755V9.801ZM75.3963 17C75.1663 17 74.9976 16.9463 74.8903 16.839C74.783 16.7317 74.6986 16.5937 74.6373 16.425L71.3253 5.776C71.2946 5.69933 71.2793 5.62267 71.2793 5.546C71.2793 5.408 71.333 5.293 71.4403 5.201C71.5476 5.09367 71.6703 5.04 71.8083 5.04H74.1773C74.3766 5.04 74.53 5.09367 74.6373 5.201C74.76 5.30833 74.8366 5.41567 74.8673 5.523L76.7993 12.101L78.8693 5.546C78.9 5.43867 78.969 5.33133 79.0763 5.224C79.199 5.10133 79.3676 5.04 79.5823 5.04H81.1003C81.315 5.04 81.476 5.10133 81.5833 5.224C81.706 5.33133 81.7826 5.43867 81.8133 5.546L83.8833 12.101L85.8153 5.523C85.846 5.41567 85.915 5.30833 86.0223 5.201C86.145 5.09367 86.306 5.04 86.5053 5.04H88.8743C89.0123 5.04 89.1273 5.09367 89.2193 5.201C89.3266 5.293 89.3803 5.408 89.3803 5.546C89.3803 5.62267 89.3726 5.69933 89.3573 5.776L86.0453 16.425C85.9993 16.5937 85.915 16.7317 85.7923 16.839C85.685 16.9463 85.5163 17 85.2863 17H83.2163C83.0016 17 82.833 16.9463 82.7103 16.839C82.5876 16.7317 82.5033 16.5937 82.4573 16.425L80.3413 10.123L78.2253 16.425C78.1793 16.5937 78.095 16.7317 77.9723 16.839C77.8496 16.9463 77.681 17 77.4663 17H75.3963ZM93.8265 17.23C92.9985 17.23 92.2548 17.0767 91.5955 16.77C90.9515 16.448 90.4378 16.0187 90.0545 15.482C89.6712 14.9453 89.4795 14.3397 89.4795 13.665C89.4795 12.5763 89.9242 11.7177 90.8135 11.089C91.7028 10.445 92.8835 10.008 94.3555 9.778L97.2305 9.341V9.019C97.2305 8.467 97.1155 8.04533 96.8855 7.754C96.6555 7.46267 96.2338 7.317 95.6205 7.317C95.1912 7.317 94.8385 7.40133 94.5625 7.57C94.3018 7.73867 94.0948 7.96867 93.9415 8.26C93.8035 8.45933 93.6118 8.559 93.3665 8.559H90.7905C90.6218 8.559 90.4915 8.513 90.3995 8.421C90.3075 8.31367 90.2692 8.191 90.2845 8.053C90.2845 7.777 90.3842 7.46267 90.5835 7.11C90.7982 6.742 91.1202 6.38167 91.5495 6.029C91.9788 5.67633 92.5308 5.385 93.2055 5.155C93.8802 4.925 94.6928 4.81 95.6435 4.81C96.6402 4.81 97.4912 4.925 98.1965 5.155C98.9018 5.385 99.4692 5.707 99.8985 6.121C100.343 6.535 100.673 7.02567 100.887 7.593C101.102 8.145 101.209 8.75833 101.209 9.433V16.425C101.209 16.5937 101.148 16.7317 101.025 16.839C100.918 16.9463 100.788 17 100.634 17H97.9665C97.7978 17 97.6598 16.9463 97.5525 16.839C97.4452 16.7317 97.3915 16.5937 97.3915 16.425V15.62C97.1922 15.9113 96.9238 16.1797 96.5865 16.425C96.2492 16.6703 95.8505 16.862 95.3905 17C94.9458 17.1533 94.4245 17.23 93.8265 17.23ZM94.9075 14.608C95.3522 14.608 95.7508 14.516 96.1035 14.332C96.4715 14.1327 96.7552 13.8337 96.9545 13.435C97.1692 13.021 97.2765 12.5073 97.2765 11.894V11.572L95.3215 11.917C94.6008 12.0397 94.0718 12.2313 93.7345 12.492C93.4125 12.7373 93.2515 13.0287 93.2515 13.366C93.2515 13.6267 93.3282 13.849 93.4815 14.033C93.6348 14.217 93.8342 14.3627 94.0795 14.47C94.3248 14.562 94.6008 14.608 94.9075 14.608ZM103.69 17C103.521 17 103.383 16.9463 103.276 16.839C103.169 16.7317 103.115 16.5937 103.115 16.425V5.615C103.115 5.46167 103.169 5.33133 103.276 5.224C103.383 5.10133 103.521 5.04 103.69 5.04H106.335C106.504 5.04 106.642 5.10133 106.749 5.224C106.856 5.33133 106.91 5.46167 106.91 5.615V6.535C107.324 6.05967 107.815 5.69167 108.382 5.431C108.965 5.17033 109.616 5.04 110.337 5.04H111.349C111.502 5.04 111.633 5.09367 111.74 5.201C111.863 5.30833 111.924 5.44633 111.924 5.615V7.984C111.924 8.13733 111.863 8.27533 111.74 8.398C111.633 8.50533 111.502 8.559 111.349 8.559H109.118C108.489 8.559 107.999 8.73533 107.646 9.088C107.309 9.42533 107.14 9.90833 107.14 10.537V16.425C107.14 16.5937 107.079 16.7317 106.956 16.839C106.849 16.9463 106.711 17 106.542 17H103.69ZM117.219 17.23C116.483 17.23 115.816 17.115 115.218 16.885C114.635 16.6397 114.129 16.287 113.7 15.827C113.286 15.3517 112.964 14.7843 112.734 14.125C112.504 13.4503 112.374 12.6837 112.343 11.825C112.328 11.5183 112.32 11.25 112.32 11.02C112.32 10.7747 112.328 10.5063 112.343 10.215C112.374 9.387 112.504 8.64333 112.734 7.984C112.964 7.32467 113.286 6.75733 113.7 6.282C114.114 5.80667 114.62 5.44633 115.218 5.201C115.816 4.94033 116.483 4.81 117.219 4.81C117.986 4.81 118.645 4.94033 119.197 5.201C119.749 5.44633 120.217 5.76833 120.6 6.167V1.245C120.6 1.07633 120.654 0.938333 120.761 0.831C120.868 0.723666 121.006 0.669999 121.175 0.669999H123.981C124.134 0.669999 124.265 0.723666 124.372 0.831C124.495 0.938333 124.556 1.07633 124.556 1.245V16.425C124.556 16.5937 124.495 16.7317 124.372 16.839C124.265 16.9463 124.134 17 123.981 17H121.382C121.213 17 121.075 16.9463 120.968 16.839C120.861 16.7317 120.807 16.5937 120.807 16.425V15.689C120.439 16.1337 119.964 16.5017 119.381 16.793C118.798 17.0843 118.078 17.23 117.219 17.23ZM118.461 14.148C118.982 14.148 119.389 14.0407 119.68 13.826C119.987 13.596 120.209 13.3047 120.347 12.952C120.5 12.5993 120.585 12.216 120.6 11.802C120.615 11.4953 120.623 11.204 120.623 10.928C120.623 10.652 120.615 10.3683 120.6 10.077C120.585 9.69367 120.5 9.341 120.347 9.019C120.194 8.68167 119.964 8.41333 119.657 8.214C119.35 7.99933 118.952 7.892 118.461 7.892C117.955 7.892 117.549 7.99933 117.242 8.214C116.951 8.42867 116.744 8.72 116.621 9.088C116.498 9.456 116.422 9.86233 116.391 10.307C116.345 10.7823 116.345 11.2577 116.391 11.733C116.422 12.1777 116.498 12.584 116.621 12.952C116.744 13.32 116.951 13.6113 117.242 13.826C117.549 14.0407 117.955 14.148 118.461 14.148Z" fill="#FF5A29"/>
</svg>
