<svg width="28" height="28" viewBox="0 0 28 28" fill="none" xmlns="http://www.w3.org/2000/svg">
<rect width="28" height="28" rx="4" fill="#0CC763" fill-opacity="0.15"/>
<path fill-rule="evenodd" clip-rule="evenodd" d="M12.625 8.7251H8.875V12.4751H10.125V9.9751H12.625V8.7251ZM8.875 19.9751V16.2251H10.125V18.7251H12.625V19.9751H8.875ZM16.375 8.7251V9.9751H18.875V12.4751H20.125V8.7251H16.375ZM18.875 16.2251H20.125V19.9751H16.375V18.7251H18.875V16.2251ZM11.375 11.2251H13.875V13.7251H11.375V11.2251ZM11.375 14.9751H13.875V17.4751H11.375V14.9751ZM17.625 11.2251H15.125V13.7251H17.625V11.2251ZM15.125 14.9751H17.625V17.4751H15.125V14.9751Z" fill="#0CC763"/>
</svg>
