<svg width="163" height="138" viewBox="0 0 163 138" fill="none" xmlns="http://www.w3.org/2000/svg">
<path d="M0 -0.300904C7.04326 -0.451425 14.0864 -0.563571 21.1309 -0.632181C24.4032 -0.664911 27.6745 -0.709378 30.9462 -0.783249C33.8037 -0.847737 36.6604 -0.888401 39.5187 -0.902488C41.0274 -0.910703 42.5336 -0.933003 44.0418 -0.976922C52.6919 -1.21845 58.2821 0.405031 65.4014 5.35123C66.8078 6.31452 68.2578 7.14645 69.7476 7.97501C70.1885 8.22816 70.6294 8.4813 71.0837 8.74212C71.514 8.98879 71.9443 9.23547 72.3876 9.48961C73.3894 10.0646 74.3912 10.6397 75.393 11.2147C75.8905 11.5002 76.388 11.7856 76.9006 12.0797C79.3898 13.5083 81.878 14.9385 84.3662 16.3687C85.3597 16.9395 86.3531 17.5104 87.3466 18.0813C93.3072 21.5065 99.2679 24.9318 105.229 28.357C105.72 28.6397 106.212 28.9223 106.719 29.2135C107.712 29.7839 108.704 30.3544 109.697 30.925C112.192 32.3587 114.686 33.7917 117.182 35.2236C122.448 38.2456 127.706 41.28 132.953 44.3338C136.296 46.2779 139.645 48.21 142.998 50.136C143.486 50.4163 143.974 50.6967 144.477 50.9856C146.822 52.3318 149.167 53.6763 151.515 55.0168C152.614 55.645 153.714 56.2742 154.813 56.9034C155.59 57.3473 156.367 57.7899 157.144 58.2325C157.615 58.5018 158.085 58.7712 158.57 59.0487C158.984 59.285 159.398 59.5212 159.824 59.7646C160.192 59.9875 160.559 60.2105 160.938 60.4403C161.42 60.6813 161.42 60.6813 161.911 60.9272C163.029 62.0739 162.988 62.9766 163 64.5313C162.99 65.0876 162.99 65.0876 162.98 65.6552C162.98 66.0474 162.981 66.4396 162.981 66.8436C162.98 68.1412 162.965 69.4382 162.951 70.7356C162.947 71.6347 162.945 72.5338 162.943 73.433C162.936 75.8003 162.918 78.1675 162.898 80.5348C162.879 82.9501 162.871 85.3654 162.861 87.7807C162.842 92.5206 162.81 97.2603 162.772 102C162.332 101.749 161.893 101.499 161.44 101.241C160.856 100.908 160.273 100.576 159.69 100.244C159.401 100.079 159.112 99.9143 158.814 99.7445C156.724 98.5543 154.623 97.3877 152.513 96.2342C148.301 93.917 144.152 91.4981 140 89.0768C137.071 87.369 134.133 85.677 131.192 83.9889C130.697 83.7047 130.202 83.4205 129.692 83.1278C128.687 82.5514 127.683 81.975 126.679 81.3988C124.19 79.9702 121.701 78.5399 119.213 77.1098C118.22 76.5389 117.226 75.9681 116.233 75.3972C102.325 67.4049 88.4164 59.4127 74.5082 51.4204C74.0164 51.1378 73.5246 50.8552 73.0178 50.564C72.0251 49.9935 71.0324 49.423 70.0397 48.8525C67.5452 47.4188 65.0503 45.9857 62.5547 44.5539C57.7624 41.8035 52.9751 39.0454 48.2011 36.2637C44.2223 33.9458 40.2271 31.6578 36.2225 29.3846C31.7708 26.8577 27.3307 24.3124 22.9131 21.7266C20.756 20.4658 18.5939 19.2169 16.4112 18.0004C15.596 17.546 14.7822 17.0892 13.9687 16.6319C12.9415 16.0557 11.9116 15.4842 10.8787 14.9182C6.93855 12.6988 3.63363 10.2468 1.63345 6.0929C1.41653 5.65961 1.19962 5.22631 0.976129 4.77989C0.35308 3.062 0.205555 1.51304 0 -0.300904Z" fill="#FF5A29"/>
<path d="M111.132 94.7656C111.909 95.2225 112.687 95.6794 113.464 96.1356C113.999 96.4498 114.533 96.7648 115.066 97.0806C116.965 98.2038 118.878 99.2982 120.801 100.379C121.341 100.683 121.881 100.988 122.42 101.292C123.438 101.865 124.456 102.436 125.476 103.005C130.889 106.076 135.756 109.352 137.579 115.588C138.583 121.24 137.846 125.895 134.767 130.8C132.157 134.428 128.432 137.101 123.961 137.884C116.631 138.574 111.694 136.119 105.453 132.447C104.673 131.993 103.893 131.538 103.112 131.084C102.575 130.771 102.039 130.458 101.502 130.145C99.6002 129.037 97.6816 127.961 95.754 126.897C95.2143 126.596 94.6747 126.296 94.1353 125.995C93.12 125.431 92.1019 124.871 91.0808 124.316C85.6919 121.295 82.1146 117.665 80.1413 111.79C79.6838 105.465 80.1453 100.585 84.4368 95.5668C92.528 87.3116 101.986 89.2684 111.132 94.7656Z" fill="#333333"/>
<path d="M109 0C126.82 0 144.64 0 163 0C163 12.87 163 25.74 163 39C157.721 36.4508 157.721 36.4508 155.81 35.3615C155.379 35.1174 154.949 34.8734 154.506 34.622C154.055 34.3645 153.604 34.1069 153.139 33.8416C152.14 33.275 151.141 32.7088 150.142 32.1428C149.63 31.8523 149.118 31.5618 148.59 31.2626C146.063 29.8344 143.526 28.4223 140.989 27.0109C140.486 26.7309 139.983 26.4509 139.465 26.1624C136.841 24.7013 134.215 23.2419 131.589 21.7834C129.036 20.3653 126.486 18.9426 123.938 17.5164C122.761 16.8595 121.582 16.2076 120.402 15.5568C115.584 12.8754 111.827 10.2603 109.939 4.98837C109.629 3.34221 109.319 1.69605 109 0Z" fill="#FF5A29"/>
<path d="M40.5207 53.3877C43.6363 55.8102 45.9064 59.3273 46.7519 63.2087C47.2622 67.6929 47.1411 71.9726 44.8813 75.9639C44.5756 76.5147 44.5756 76.5147 44.2638 77.0767C41.8085 81.1224 38.6004 83.9026 34.1251 85.4122C29.5478 86.5201 25.0515 86.0882 20.8698 83.8916C16.7555 81.3297 13.4953 77.8066 12.3569 72.9929C11.3946 67.1772 12.3569 62.3343 15.5063 57.4216C21.7161 48.9907 31.9695 47.8821 40.5207 53.3877Z" fill="#FF5A29"/>
</svg>
