<svg width="287" height="327" viewBox="0 0 287 327" fill="none" xmlns="http://www.w3.org/2000/svg">
<path d="M0.704414 144C2.25125 144.608 3.68902 145.264 5.13512 146.086C5.75166 146.436 5.75166 146.436 6.38065 146.792C6.8214 147.044 7.26216 147.296 7.71628 147.556C8.18094 147.82 8.6456 148.085 9.12435 148.357C13.3329 150.759 17.5154 153.204 21.6953 155.655C26.0911 158.231 30.5063 160.773 34.919 163.32C37.4049 164.755 39.8899 166.192 42.3749 167.629C43.3671 168.203 44.3592 168.776 45.3514 169.35C78.0925 188.276 78.0925 188.276 110.834 207.202C111.325 207.486 111.816 207.77 112.322 208.062C113.313 208.636 114.305 209.209 115.296 209.782C117.788 211.222 120.279 212.662 122.772 214.1C127.558 216.864 132.339 219.634 137.107 222.429C141.08 224.758 145.07 227.056 149.07 229.34C153.521 231.882 157.957 234.448 162.38 237.04C167.199 239.864 172.036 242.657 176.873 245.449C179.852 247.168 182.829 248.89 185.806 250.611C188.348 252.081 190.891 253.55 193.436 255.016C195.929 256.452 198.418 257.894 200.906 259.339C202.035 259.992 203.167 260.64 204.301 261.285C210.548 264.881 215.239 268.836 217.423 275.892C218.749 282.33 217.804 288.275 214.437 293.918C211.069 298.863 206.747 302.401 200.796 303.645C193.744 304.839 188.575 302.91 182.498 299.539C182.108 299.324 181.719 299.109 181.318 298.887C175.916 295.888 170.579 292.776 165.25 289.648C161.702 287.568 158.136 285.519 154.565 283.48C150.113 280.939 145.677 278.372 141.254 275.78C136.435 272.956 131.598 270.164 126.761 267.372C124.275 265.937 121.79 264.5 119.305 263.063C118.313 262.489 117.321 261.916 116.329 261.342C94.5012 248.725 72.6738 236.108 50.8464 223.49C50.3552 223.206 49.864 222.922 49.3579 222.63C48.3665 222.057 47.3751 221.483 46.3837 220.91C43.8924 219.47 41.4007 218.03 38.9083 216.592C34.1223 213.829 29.3412 211.058 24.5734 208.263C19.9606 205.56 15.3259 202.897 10.6822 200.247C10.1781 199.96 9.67388 199.672 9.15442 199.375C8.71599 199.125 8.27756 198.876 7.82584 198.618C7.58986 198.469 7.35388 198.319 7.11076 198.165C6.1502 197.618 6.1502 197.618 4.81072 197.26C2.96933 196.552 1.99475 195.982 0.704414 194.47C-0.35685 190.856 0.0688368 186.835 0.167792 183.116C0.178045 181.989 0.185865 180.862 0.191353 179.735C0.2123 176.774 0.266244 173.814 0.327102 170.853C0.383392 167.83 0.408427 164.807 0.436103 161.784C0.494974 155.855 0.587652 149.928 0.704414 144Z" fill="#FF5A29"/>
<path d="M105.724 47.1203C106.219 47.4006 106.714 47.6809 107.225 47.9697C111.02 50.1244 114.794 52.3156 118.561 54.5175C122.087 56.5777 125.632 58.6045 129.183 60.621C133.628 63.1455 138.057 65.6949 142.472 68.2696C147.283 71.0742 152.113 73.8477 156.942 76.6209C159.424 78.0463 161.905 79.4735 164.386 80.9006C165.377 81.4702 166.367 82.0399 167.358 82.6095C200.047 101.408 200.047 101.408 232.735 120.206C233.226 120.488 233.716 120.77 234.221 121.061C235.211 121.63 236.201 122.2 237.191 122.769C239.678 124.199 242.166 125.629 244.654 127.058C249.879 130.059 255.099 133.067 260.299 136.111C262.811 137.577 265.337 139.015 267.881 140.425C268.743 140.906 269.606 141.388 270.468 141.869C271.018 142.175 271.57 142.479 272.123 142.78C278.37 146.185 284.119 150.57 286.222 157.641C287.777 164.067 287.046 170.102 283.625 175.804C280.212 180.757 275.719 184.612 269.651 185.832C260.425 186.839 253.878 183.177 246.217 178.631C243.575 177.066 240.913 175.538 238.25 174.01C237.744 173.719 237.238 173.429 236.717 173.13C235.679 172.533 234.64 171.937 233.602 171.341C231.102 169.906 228.604 168.469 226.106 167.032C225.115 166.462 224.125 165.892 223.134 165.323C221.153 164.183 219.172 163.044 217.191 161.905C216.701 161.623 216.21 161.341 215.705 161.05C214.715 160.481 213.725 159.912 212.735 159.342C210.248 157.912 207.76 156.482 205.272 155.053C200.494 152.308 195.72 149.556 190.96 146.781C186.993 144.468 183.009 142.185 179.016 139.916C174.572 137.392 170.143 134.842 165.727 132.268C160.916 129.463 156.087 126.69 151.257 123.916C148.775 122.491 146.294 121.064 143.813 119.637C142.823 119.067 141.832 118.497 140.841 117.928C126.974 109.953 113.106 101.978 99.2378 94.0025C98.7469 93.7204 98.256 93.4382 97.7502 93.1475C96.7648 92.5805 95.7798 92.0127 94.7953 91.4441C92.5113 90.1262 90.2241 88.8159 87.9185 87.536C87.1135 87.0886 86.3101 86.6385 85.5071 86.1876C84.5076 85.6275 83.5054 85.0722 82.4997 84.5232C76.7166 81.2651 72.1615 77.1632 69.8066 70.8747C68.2459 64.9687 68.9663 58.726 71.8264 53.3776C75.178 47.7891 79.5277 44.252 85.8187 42.4314C93.3244 40.9586 99.3087 43.438 105.724 47.1203Z" fill="#FF5A29"/>
<path d="M118.393 132.179C118.666 132.321 118.94 132.464 119.222 132.611C121.726 133.928 124.178 135.332 126.625 136.751C127.039 136.991 127.453 137.23 127.879 137.477C130.157 138.8 132.432 140.128 134.705 141.459C137.627 143.169 140.558 144.863 143.491 146.553C143.985 146.837 144.479 147.122 144.987 147.415C145.989 147.992 146.991 148.569 147.993 149.146C150.476 150.576 152.958 152.008 155.44 153.44C156.431 154.012 157.422 154.583 158.413 155.155C197.061 177.445 197.061 177.445 235.709 199.735C236.2 200.018 236.691 200.302 237.197 200.593C238.183 201.162 239.168 201.731 240.153 202.3C242.443 203.623 244.734 204.942 247.033 206.247C247.838 206.704 248.642 207.162 249.445 207.621C250.447 208.192 251.45 208.76 252.454 209.326C259.455 213.327 264.938 217.31 267.414 225.292C268.86 231.753 267.558 237.557 264.3 243.266C261.186 247.982 256.608 251.368 251.083 252.673C243.586 253.811 237.954 251.904 231.478 248.145C230.986 247.864 230.493 247.583 229.986 247.294C228.46 246.421 226.938 245.541 225.418 244.659C224.955 244.39 224.492 244.122 224.015 243.846C221.749 242.531 219.487 241.211 217.227 239.886C214.343 238.197 211.449 236.525 208.553 234.857C207.811 234.43 207.811 234.43 207.055 233.994C206.054 233.417 205.052 232.84 204.051 232.263C201.568 230.833 199.086 229.401 196.604 227.97C195.613 227.398 194.622 226.826 193.631 226.255C191.649 225.112 189.667 223.969 187.685 222.826C187.194 222.543 186.704 222.26 186.198 221.968C185.208 221.397 184.218 220.826 183.227 220.255C180.739 218.819 178.25 217.385 175.761 215.951C170.981 213.197 166.205 210.436 161.443 207.651C157.474 205.33 153.489 203.04 149.494 200.764C145.048 198.231 140.617 195.673 136.2 193.09C131.386 190.276 126.555 187.493 121.723 184.711C120.231 183.851 118.738 182.991 117.246 182.13C116.51 181.705 116.51 181.705 115.759 181.273C114.774 180.704 113.79 180.135 112.806 179.566C110.516 178.241 108.223 176.923 105.914 175.632C105.105 175.179 104.298 174.724 103.491 174.268C102.484 173.701 101.476 173.138 100.464 172.581C94.7476 169.343 90.1111 165.185 87.7773 158.898C86.2641 152.97 86.9672 146.734 89.8265 141.371C93.0264 136.02 97.2027 132.339 103.265 130.547C108.16 129.531 113.974 129.852 118.393 132.179Z" fill="#FF5A29"/>
<path d="M88 0.729705C97.9189 0.577126 107.838 0.462964 117.757 0.393063C122.365 0.359727 126.971 0.314379 131.578 0.239548C135.599 0.174266 139.619 0.132749 143.641 0.118379C145.765 0.109993 147.888 0.0906601 150.012 0.0427395C160.146 -0.177028 167.424 0.240108 175.904 6.44097C177.507 7.59334 179.199 8.56421 180.906 9.54754C181.511 9.9129 182.117 10.2795 182.721 10.648C184.303 11.6046 185.902 12.5302 187.506 13.4507C188.231 13.8711 188.231 13.8711 188.972 14.3C189.915 14.846 190.861 15.3878 191.809 15.9243C198.011 19.5337 202.177 23.9337 204.382 30.896C205.802 36.9494 204.72 42.8924 201.7 48.2416C201.237 48.9652 200.762 49.6815 200.274 50.388C199.973 50.8304 199.973 50.8304 199.666 51.2818C196.659 55.2559 191.813 57.7899 187.038 58.7418C185.744 58.889 184.461 58.9503 183.159 58.9738C182.856 58.9825 182.554 58.9911 182.242 59C177.355 58.9382 173.013 56.625 168.897 54.1588C168.447 53.8952 167.998 53.6315 167.535 53.3599C166.122 52.5292 164.714 51.6914 163.306 50.8521C162.417 50.3256 161.529 49.7992 160.64 49.2731C159.297 48.477 157.954 47.6802 156.613 46.8813C153.076 44.7766 149.523 42.7045 145.963 40.642C141.526 38.0711 137.104 35.4749 132.697 32.8529C127.898 29.9995 123.082 27.1777 118.265 24.3563C116.733 23.4589 115.202 22.5611 113.671 21.663C113.165 21.3662 112.658 21.0695 112.137 20.7637C111.134 20.1753 110.132 19.5865 109.129 18.9973C106.877 17.6737 104.623 16.3543 102.359 15.0514C90.3288 8.11051 90.3288 8.11051 88 0.729705Z" fill="#FF5A29"/>
<path d="M72.1771 267.031C72.535 267.021 72.8929 267.011 73.2616 267C78.4999 267.021 82.8502 269.556 87.2788 272.07C87.7868 272.354 88.2949 272.639 88.8183 272.932C91.9021 274.664 94.976 276.413 98.0234 278.207C100.022 279.381 102.039 280.518 104.07 281.639C104.876 282.088 105.683 282.536 106.489 282.986C107.262 283.414 108.039 283.837 108.816 284.259C115.352 287.907 119.94 292.4 122.478 299.428C123.854 305.962 122.459 312.117 118.897 317.691C115.601 322.306 111.107 325.363 105.528 326.71C94.4731 328.446 85.8506 322.03 76.7953 316.775C74.7398 315.583 72.6762 314.406 70.6052 313.241C70.0667 312.938 69.5283 312.634 68.9899 312.33C67.9691 311.756 66.9475 311.182 65.9248 310.611C58.8945 306.644 53.3677 302.71 50.6723 294.897C49.1425 288.566 50.2619 282.416 53.6392 276.881C56.7579 272.347 60.9131 268.872 66.3876 267.445C68.3204 267.154 70.2235 267.065 72.1771 267.031Z" fill="#333333"/>
<path d="M0.848166 65C1.71359 65.4366 2.57865 65.8739 3.44356 66.3116C3.92533 66.5551 4.4071 66.7985 4.90347 67.0494C6.54599 67.8981 8.12814 68.8188 9.7041 69.7873C10.3636 70.1868 11.0235 70.5857 11.6836 70.9841C12.2188 71.3074 12.2188 71.3074 12.7649 71.6372C15.0159 72.9869 17.2823 74.3096 19.5472 75.6352C20.0463 75.9276 20.5455 76.2199 21.0598 76.5211C22.0849 77.1214 23.1101 77.7215 24.1353 78.3216C27.0884 80.0505 30.04 81.782 32.9914 83.5139C35.4791 84.9735 37.9683 86.4305 40.4601 87.883C43.3563 89.5723 46.2473 91.2704 49.1328 92.9784C49.5454 93.2223 49.958 93.4662 50.3832 93.7175C51.5024 94.3825 52.6169 95.0548 53.7299 95.7304C54.0458 95.9177 54.3617 96.105 54.6871 96.2979C59.7761 99.4264 62.9852 104.116 64.4755 109.949C65.7699 115.69 64.6059 121.592 61.6728 126.629C58.1021 131.97 53.6109 135.299 47.4405 136.867C38.7021 137.721 32.5125 134.361 25.1597 129.929C24.2145 129.364 23.269 128.799 22.3235 128.235C21.8377 127.944 21.3519 127.654 20.8514 127.354C17.8564 125.572 14.8448 123.819 11.8341 122.064C10.941 121.542 10.0541 121.009 9.17486 120.463C8.03715 119.819 7.08238 119.361 5.88158 118.916C3.89907 118.098 2.17577 117.203 0.848166 115.453C-0.401593 111.856 0.0637323 107.761 0.187144 104.013C0.199779 102.888 0.209409 101.763 0.216167 100.637C0.241938 97.6843 0.308351 94.7336 0.383385 91.7814C0.452798 88.7656 0.483579 85.7493 0.517655 82.7329C0.590116 76.8209 0.704229 70.9106 0.848166 65Z" fill="#FF5A29"/>
<path d="M39.528 8.72543C43.545 11.9845 46.1136 16.5068 46.8886 21.6155C47.52 29.2676 45.4714 35.3052 40.6206 41.2672C36.5678 45.6154 31.0819 47.7861 25.1806 48C18.9509 47.489 13.2423 45.281 8.8493 40.6918C4.53302 35.4764 3.65696 29.5118 4.10517 22.9966C5.06816 16.9696 8.87387 11.4901 13.5988 7.77054C21.7043 2.25127 31.6969 2.97944 39.528 8.72543Z" fill="#333333"/>
<path d="M259.862 56.1695C264.012 59.3755 267.262 63.9622 267.904 69.1996C268.481 76.7033 266.462 82.5946 261.644 88.3953C257.526 92.7175 252.022 94.7363 246.053 95C239.712 94.7386 234.095 92.1124 229.772 87.6365C225.931 83.2248 224.785 77.8856 225.032 72.2244C225.565 66.0814 228.871 60.7492 233.447 56.6086C241.42 50.4697 251.554 50.6062 259.862 56.1695Z" fill="#333333"/>
<path d="M1 223C5.02073 227.137 6.80237 231.862 7 237.625C6.88954 243.547 4.74078 248.264 1.4486 253C1.30056 253 1.15252 253 1 253C1 243.1 1 233.2 1 223Z" fill="#FF5A29"/>
</svg>
