<svg width="40" height="41" viewBox="0 0 40 41" fill="none" xmlns="http://www.w3.org/2000/svg">
<rect y="0.469971" width="40" height="40" rx="4" fill="#FF5A29"/>
<path d="M25.327 19.6673H23.1895C23.0811 19.6673 22.9811 19.7028 22.8895 19.7736C22.7978 19.8444 22.7395 19.934 22.7145 20.0423L21.5895 23.2923L18.8645 15.2423C18.8395 15.134 18.7811 15.0444 18.6895 14.9736C18.5978 14.9028 18.4978 14.8673 18.3895 14.8673C18.2811 14.8673 18.1811 14.9028 18.0895 14.9736C17.9978 15.0444 17.9395 15.134 17.9145 15.2423L16.4145 19.6673H14.652C14.4936 19.6673 14.3665 19.7153 14.2707 19.8111C14.1749 19.9069 14.127 20.034 14.127 20.1923C14.127 20.359 14.1749 20.4903 14.2707 20.5861C14.3665 20.6819 14.4936 20.7298 14.652 20.7298H16.7895C16.8978 20.7298 16.9978 20.6944 17.0895 20.6236C17.1811 20.5528 17.2395 20.4632 17.2645 20.3548L18.3895 17.1048L21.1145 25.2048C21.1395 25.3132 21.1978 25.4028 21.2895 25.4736C21.3811 25.5444 21.4811 25.5798 21.5895 25.5798C21.6978 25.5798 21.7978 25.5444 21.8895 25.4736C21.9811 25.4028 22.0395 25.3132 22.0645 25.2048L23.5645 20.7798H25.327C25.4853 20.7798 25.6124 20.7319 25.7082 20.6361C25.804 20.5403 25.852 20.4132 25.852 20.2548C25.852 20.0882 25.804 19.9486 25.7082 19.8361C25.6124 19.7236 25.4853 19.6673 25.327 19.6673Z" fill="white"/>
</svg>
