<svg width="40" height="40" viewBox="0 0 40 40" fill="none" xmlns="http://www.w3.org/2000/svg">
<rect width="40" height="40" rx="20" fill="#FF5A29" fill-opacity="0.15"/>
<path d="M29 14V29C29 29.4141 28.9219 29.8008 28.7656 30.1602C28.6094 30.5195 28.3945 30.8359 28.1211 31.1094C27.8477 31.3828 27.5273 31.5977 27.1602 31.7539C26.793 31.9102 26.4062 31.9922 26 32H12.5C12.0859 32 11.6992 31.9219 11.3398 31.7656C10.9805 31.6094 10.6641 31.3945 10.3906 31.1211C10.1172 30.8477 9.90234 30.5312 9.74609 30.1719C9.58984 29.8125 9.50781 29.4219 9.5 29V14H12.5V12.5C12.5 11.8828 12.6172 11.3008 12.8516 10.7539C13.0859 10.207 13.4102 9.73047 13.8242 9.32422C14.2383 8.91797 14.7148 8.59766 15.2539 8.36328C15.793 8.12891 16.375 8.00781 17 8C17.8125 8 18.5664 8.20312 19.2617 8.60938C19.957 8.20312 20.7031 8 21.5 8C22.1172 8 22.6992 8.11719 23.2461 8.35156C23.793 8.58594 24.2695 8.91016 24.6758 9.32422C25.082 9.73828 25.4023 10.2148 25.6367 10.7539C25.8711 11.293 25.9922 11.875 26 12.5V14H29ZM24.5 12.5C24.5 12.0938 24.4219 11.707 24.2656 11.3398C24.1094 10.9727 23.8945 10.6562 23.6211 10.3906C23.3477 10.125 23.0273 9.91016 22.6602 9.74609C22.293 9.58203 21.9062 9.5 21.5 9.5C21.1484 9.5 20.8164 9.55859 20.5039 9.67578C20.7305 9.95703 20.9102 10.2344 21.043 10.5078C21.1758 10.7812 21.2734 11.0547 21.3359 11.3281C21.3984 11.6016 21.4414 11.8789 21.4648 12.1602C21.4883 12.4414 21.5 12.7422 21.5 13.0625V14H24.5V12.5ZM14 14H20V12.5C20 12.0938 19.9219 11.707 19.7656 11.3398C19.6094 10.9727 19.3945 10.6562 19.1211 10.3906C18.8477 10.125 18.5273 9.91016 18.1602 9.74609C17.793 9.58203 17.4062 9.5 17 9.5C16.5859 9.5 16.1992 9.57812 15.8398 9.73438C15.4805 9.89062 15.1641 10.1055 14.8906 10.3789C14.6172 10.6523 14.4023 10.9727 14.2461 11.3398C14.0898 11.707 14.0078 12.0938 14 12.5V14ZM23.3984 30.5C23.1328 30.0312 23 29.5312 23 29V15.5H11V29C11 29.2109 11.0391 29.4062 11.1172 29.5859C11.1953 29.7656 11.3008 29.9219 11.4336 30.0547C11.5664 30.1875 11.7266 30.2969 11.9141 30.3828C12.1016 30.4688 12.2969 30.5078 12.5 30.5H23.3984ZM27.5 15.5H24.5V29C24.5 29.2109 24.5391 29.4062 24.6172 29.5859C24.6953 29.7656 24.8008 29.9219 24.9336 30.0547C25.0664 30.1875 25.2266 30.2969 25.4141 30.3828C25.6016 30.4688 25.7969 30.5078 26 30.5C26.2109 30.5 26.4062 30.4609 26.5859 30.3828C26.7656 30.3047 26.9219 30.1992 27.0547 30.0664C27.1875 29.9336 27.2969 29.7734 27.3828 29.5859C27.4688 29.3984 27.5078 29.2031 27.5 29V15.5Z" fill="#FF5A29"/>
</svg>
