<svg width="41" height="41" viewBox="0 0 41 41" fill="none" xmlns="http://www.w3.org/2000/svg">
<rect x="0.269531" y="0.689941" width="40" height="40" rx="20" fill="#735DFF" fill-opacity="0.15"/>
<rect x="0.769531" y="1.18994" width="39" height="39" rx="19.5" stroke="#735DFF" stroke-opacity="0.3"/>
<path opacity="0.2" d="M29.2695 19.7817V27.4402C29.2695 27.6391 29.1905 27.8299 29.0499 27.9705C28.9092 28.1112 28.7184 28.1902 28.5195 28.1902H12.0195C11.8206 28.1902 11.6299 28.1112 11.4892 27.9705C11.3485 27.8299 11.2695 27.6391 11.2695 27.4402V19.7817C14.0047 21.364 17.1097 22.1949 20.2695 22.1902C23.4294 22.1952 26.5345 21.3643 29.2695 19.7817Z" fill="#735DFF"/>
<path d="M18.0195 19.1899C18.0195 18.991 18.0985 18.8003 18.2392 18.6596C18.3799 18.519 18.5706 18.4399 18.7695 18.4399H21.7695C21.9684 18.4399 22.1592 18.519 22.2999 18.6596C22.4405 18.8003 22.5195 18.991 22.5195 19.1899C22.5195 19.3889 22.4405 19.5796 22.2999 19.7203C22.1592 19.8609 21.9684 19.9399 21.7695 19.9399H18.7695C18.5706 19.9399 18.3799 19.8609 18.2392 19.7203C18.0985 19.5796 18.0195 19.3889 18.0195 19.1899ZM30.0195 15.4399V27.4399C30.0195 27.8378 29.8615 28.2193 29.5802 28.5006C29.2989 28.7819 28.9174 28.9399 28.5195 28.9399H12.0195C11.6217 28.9399 11.2402 28.7819 10.9589 28.5006C10.6776 28.2193 10.5195 27.8378 10.5195 27.4399V15.4399C10.5195 15.0421 10.6776 14.6606 10.9589 14.3793C11.2402 14.098 11.6217 13.9399 12.0195 13.9399H15.7695V13.1899C15.7695 12.5932 16.0066 12.0209 16.4285 11.599C16.8505 11.177 17.4228 10.9399 18.0195 10.9399H22.5195C23.1163 10.9399 23.6886 11.177 24.1105 11.599C24.5325 12.0209 24.7695 12.5932 24.7695 13.1899V13.9399H28.5195C28.9174 13.9399 29.2989 14.098 29.5802 14.3793C29.8615 14.6606 30.0195 15.0421 30.0195 15.4399ZM17.2695 13.9399H23.2695V13.1899C23.2695 12.991 23.1905 12.8003 23.0499 12.6596C22.9092 12.519 22.7184 12.4399 22.5195 12.4399H18.0195C17.8206 12.4399 17.6299 12.519 17.4892 12.6596C17.3485 12.8003 17.2695 12.991 17.2695 13.1899V13.9399ZM12.0195 15.4399V19.3418C14.5512 20.7191 17.3875 21.4405 20.2695 21.4399C23.1517 21.4405 25.9881 20.7188 28.5195 19.3409V15.4399H12.0195ZM28.5195 27.4399V21.0303C25.9509 22.2868 23.1291 22.94 20.2695 22.9399C17.41 22.9405 14.5882 22.2876 12.0195 21.0312V27.4399H28.5195Z" fill="#735DFF"/>
</svg>
