<svg width="12" height="13" viewBox="0 0 12 13" fill="none" xmlns="http://www.w3.org/2000/svg">
<path d="M10.5 9.87988H11.5V10.8799H0.5V9.87988H1.5V2.37988C1.5 2.23988 1.54833 2.12155 1.645 2.02488C1.74167 1.92822 1.86 1.87988 2 1.87988H7C7.14 1.87988 7.25833 1.92822 7.355 2.02488C7.45167 2.12155 7.5 2.23988 7.5 2.37988V9.87988H9.5V5.87988H8.5V4.87988H10C10.14 4.87988 10.2583 4.92822 10.355 5.02488C10.4517 5.12155 10.5 5.23988 10.5 5.37988V9.87988ZM2.5 2.87988V9.87988H6.5V2.87988H2.5ZM3.5 5.87988H5.5V6.87988H3.5V5.87988ZM3.5 3.87988H5.5V4.87988H3.5V3.87988Z" fill="#98A5C3"/>
</svg>
