<svg width="40" height="40" viewBox="0 0 40 40" fill="none" xmlns="http://www.w3.org/2000/svg">
<rect width="40" height="40" rx="20" fill="#0C9CFC" fill-opacity="0.15"/>
<path d="M29.7503 20.8119C29.5909 22.6643 28.9058 24.4328 27.7756 25.9091C26.6453 27.3854 25.1169 28.5083 23.3702 29.1455C21.6234 29.7827 19.7311 29.9077 17.9157 29.506C16.1003 29.1042 14.4374 28.1923 13.1227 26.8776C11.8079 25.5628 10.896 23.9 10.4943 22.0846C10.0925 20.2692 10.2176 18.3768 10.8548 16.6301C11.492 14.8834 12.6148 13.355 14.0911 12.2247C15.5675 11.0944 17.3359 10.4093 19.1884 10.25C19.2869 10.2419 19.386 10.2532 19.4801 10.2834C19.5742 10.3136 19.6615 10.362 19.7368 10.4259C19.8122 10.4898 19.8743 10.5679 19.9195 10.6558C19.9647 10.7437 19.9921 10.8396 20.0003 10.9381C20.0084 11.0366 19.997 11.1357 19.9669 11.2298C19.9367 11.3239 19.8882 11.4112 19.8243 11.4866C19.7604 11.562 19.6823 11.624 19.5944 11.6692C19.5066 11.7144 19.4106 11.7419 19.3121 11.75C17.7442 11.8847 16.2475 12.4644 14.9979 13.421C13.7483 14.3775 12.7979 15.671 12.2585 17.1494C11.7191 18.6277 11.6132 20.2293 11.9532 21.7658C12.2932 23.3023 13.065 24.7097 14.1778 25.8225C15.2905 26.9352 16.6979 27.707 18.2344 28.047C19.7709 28.387 21.3726 28.2811 22.8509 27.7417C24.3292 27.2024 25.6228 26.252 26.5793 25.0024C27.5358 23.7528 28.1155 22.256 28.2503 20.6881C28.2667 20.4892 28.3614 20.3049 28.5137 20.1759C28.6659 20.0469 28.8632 19.9836 29.0621 20C29.261 20.0164 29.4453 20.1111 29.5743 20.2634C29.7034 20.4157 29.7667 20.6129 29.7503 20.8119ZM19.2503 14.75V20C19.2503 20.1989 19.3293 20.3897 19.4699 20.5303C19.6106 20.671 19.8013 20.75 20.0003 20.75H25.2503C25.4492 20.75 25.6399 20.671 25.7806 20.5303C25.9212 20.3897 26.0003 20.1989 26.0003 20C26.0003 19.8011 25.9212 19.6103 25.7806 19.4697C25.6399 19.329 25.4492 19.25 25.2503 19.25H20.7503V14.75C20.7503 14.5511 20.6712 14.3603 20.5306 14.2197C20.3899 14.079 20.1992 14 20.0003 14C19.8013 14 19.6106 14.079 19.4699 14.2197C19.3293 14.3603 19.2503 14.5511 19.2503 14.75ZM23.0003 12.5C23.2228 12.5 23.4403 12.434 23.6253 12.3104C23.8103 12.1868 23.9545 12.0111 24.0396 11.8055C24.1248 11.5999 24.1471 11.3737 24.1036 11.1555C24.0602 10.9373 23.9531 10.7368 23.7958 10.5795C23.6384 10.4222 23.438 10.315 23.2197 10.2716C23.0015 10.2282 22.7753 10.2505 22.5697 10.3356C22.3642 10.4208 22.1885 10.565 22.0649 10.75C21.9412 10.935 21.8753 11.1525 21.8753 11.375C21.8753 11.6734 21.9938 11.9595 22.2048 12.1705C22.4157 12.3815 22.7019 12.5 23.0003 12.5ZM26.3753 14.75C26.5978 14.75 26.8153 14.684 27.0003 14.5604C27.1853 14.4368 27.3295 14.2611 27.4146 14.0555C27.4998 13.8499 27.5221 13.6237 27.4786 13.4055C27.4352 13.1873 27.3281 12.9868 27.1708 12.8295C27.0134 12.6722 26.813 12.565 26.5947 12.5216C26.3765 12.4782 26.1503 12.5005 25.9447 12.5856C25.7392 12.6708 25.5635 12.815 25.4399 13C25.3162 13.185 25.2503 13.4025 25.2503 13.625C25.2503 13.9234 25.3688 14.2095 25.5798 14.4205C25.7907 14.6315 26.0769 14.75 26.3753 14.75ZM28.6253 18.125C28.8478 18.125 29.0653 18.059 29.2503 17.9354C29.4353 17.8118 29.5795 17.6361 29.6646 17.4305C29.7498 17.2249 29.7721 16.9987 29.7286 16.7805C29.6852 16.5623 29.5781 16.3618 29.4208 16.2045C29.2634 16.0472 29.063 15.94 28.8447 15.8966C28.6265 15.8532 28.4003 15.8755 28.1947 15.9606C27.9892 16.0458 27.8135 16.19 27.6899 16.375C27.5662 16.56 27.5003 16.7775 27.5003 17C27.5003 17.2984 27.6188 17.5845 27.8298 17.7955C28.0407 18.0065 28.3269 18.125 28.6253 18.125Z" fill="#0C9CFC"/>
</svg>
