<svg width="40" height="40" viewBox="0 0 40 40" fill="none" xmlns="http://www.w3.org/2000/svg">
<rect width="40" height="40" rx="20" fill="#0CC763" fill-opacity="0.15"/>
<path d="M22.25 19.25H20.75V13.25H21.5C22.2956 13.25 23.0587 13.5661 23.6213 14.1287C24.1839 14.6913 24.5 15.4544 24.5 16.25C24.5 16.4489 24.579 16.6397 24.7197 16.7803C24.8603 16.921 25.0511 17 25.25 17C25.4489 17 25.6397 16.921 25.7803 16.7803C25.921 16.6397 26 16.4489 26 16.25C25.9988 15.0569 25.5243 13.913 24.6806 13.0694C23.837 12.2257 22.6931 11.7512 21.5 11.75H20.75V10.25C20.75 10.0511 20.671 9.86032 20.5303 9.71967C20.3897 9.57902 20.1989 9.5 20 9.5C19.8011 9.5 19.6103 9.57902 19.4697 9.71967C19.329 9.86032 19.25 10.0511 19.25 10.25V11.75H18.5C17.3065 11.75 16.1619 12.2241 15.318 13.068C14.4741 13.9119 14 15.0565 14 16.25C14 17.4435 14.4741 18.5881 15.318 19.432C16.1619 20.2759 17.3065 20.75 18.5 20.75H19.25V26.75H17.75C16.9544 26.75 16.1913 26.4339 15.6287 25.8713C15.0661 25.3087 14.75 24.5456 14.75 23.75C14.75 23.5511 14.671 23.3603 14.5303 23.2197C14.3897 23.079 14.1989 23 14 23C13.8011 23 13.6103 23.079 13.4697 23.2197C13.329 23.3603 13.25 23.5511 13.25 23.75C13.2512 24.9431 13.7257 26.087 14.5694 26.9306C15.413 27.7743 16.5569 28.2488 17.75 28.25H19.25V29.75C19.25 29.9489 19.329 30.1397 19.4697 30.2803C19.6103 30.421 19.8011 30.5 20 30.5C20.1989 30.5 20.3897 30.421 20.5303 30.2803C20.671 30.1397 20.75 29.9489 20.75 29.75V28.25H22.25C23.4435 28.25 24.5881 27.7759 25.432 26.932C26.2759 26.0881 26.75 24.9435 26.75 23.75C26.75 22.5565 26.2759 21.4119 25.432 20.568C24.5881 19.7241 23.4435 19.25 22.25 19.25ZM18.5 19.25C17.7044 19.25 16.9413 18.9339 16.3787 18.3713C15.8161 17.8087 15.5 17.0456 15.5 16.25C15.5 15.4544 15.8161 14.6913 16.3787 14.1287C16.9413 13.5661 17.7044 13.25 18.5 13.25H19.25V19.25H18.5ZM22.25 26.75H20.75V20.75H22.25C23.0456 20.75 23.8087 21.0661 24.3713 21.6287C24.9339 22.1913 25.25 22.9544 25.25 23.75C25.25 24.5456 24.9339 25.3087 24.3713 25.8713C23.8087 26.4339 23.0456 26.75 22.25 26.75Z" fill="#0CC763"/>
</svg>
