<svg width="40" height="40" viewBox="0 0 40 40" fill="none" xmlns="http://www.w3.org/2000/svg">
<rect width="40" height="40" rx="20" fill="#FF383C" fill-opacity="0.15"/>
<path d="M25 19V14C25 13.4696 24.842 12.9609 24.5607 12.5858C24.2794 12.2107 23.8978 12 23.5 12C23.1022 12 22.7206 12.2107 22.4393 12.5858C22.158 12.9609 22 13.4696 22 14" stroke="#FF383C" stroke-linecap="round" stroke-linejoin="round"/>
<path d="M22 18V12C22 11.4696 21.7893 10.9609 21.4142 10.5858C21.0391 10.2107 20.5304 10 20 10C19.4696 10 18.9609 10.2107 18.5858 10.5858C18.2107 10.9609 18 11.4696 18 12V14" stroke="#FF383C" stroke-linecap="round" stroke-linejoin="round"/>
<path d="M18 18.5V14C18 13.4696 17.842 12.9609 17.5607 12.5858C17.2794 12.2107 16.8978 12 16.5 12C16.1022 12 15.7206 12.2107 15.4393 12.5858C15.158 12.9609 15 13.4696 15 14V22" stroke="#FF383C" stroke-linecap="round" stroke-linejoin="round"/>
<path d="M25.4189 16C25.4189 15.4696 25.6076 14.9609 25.9433 14.5858C26.2791 14.2107 26.7346 14 27.2095 14C27.6843 14 28.1398 14.2107 28.4756 14.5858C28.8114 14.9609 29 15.4696 29 16V22C29 24.1217 28.2454 26.1566 26.9022 27.6569C25.5591 29.1571 23.7373 30 21.8378 30H20.0473C17.5405 30 16.0185 29.14 14.6846 27.66L11.4616 24.06C11.1535 23.6789 10.9885 23.1802 11.0006 22.6669C11.0127 22.1537 11.2011 21.6653 11.5267 21.303C11.8523 20.9406 12.2902 20.7319 12.7497 20.7202C13.2092 20.7085 13.6551 20.8946 13.9952 21.24L15.5709 23" stroke="#FF383C" stroke-linecap="round" stroke-linejoin="round"/>
</svg>
