<svg width="28" height="28" viewBox="0 0 28 28" fill="none" xmlns="http://www.w3.org/2000/svg">
<rect x="0.5" y="0.5" width="27" height="27" rx="3.5" fill="#F7F8FA"/>
<rect x="0.5" y="0.5" width="27" height="27" rx="3.5" stroke="#F7F8FA"/>
<path d="M15.0527 12.7625C15.0527 13.0625 14.9486 13.3167 14.7402 13.525C14.5319 13.7333 14.2819 13.8375 13.9902 13.8375C13.6986 13.8375 13.4486 13.7333 13.2402 13.525C13.0319 13.3167 12.9277 13.0625 12.9277 12.7625C12.9277 12.4708 13.0319 12.2208 13.2402 12.0125C13.4486 11.8042 13.6986 11.7 13.9902 11.7C14.2819 11.7 14.5319 11.8042 14.7402 12.0125C14.9486 12.2208 15.0527 12.4708 15.0527 12.7625ZM15.0527 9.0375C15.0527 9.32917 14.9486 9.57917 14.7402 9.7875C14.5319 9.99583 14.2819 10.1 13.9902 10.1C13.6986 10.1 13.4486 9.99583 13.2402 9.7875C13.0319 9.57917 12.9277 9.32917 12.9277 9.0375C12.9277 8.7375 13.0319 8.48333 13.2402 8.275C13.4486 8.06667 13.6986 7.9625 13.9902 7.9625C14.2819 7.9625 14.5319 8.06667 14.7402 8.275C14.9486 8.48333 15.0527 8.7375 15.0527 9.0375ZM15.0527 16.5C15.0527 16.7917 14.9486 17.0417 14.7402 17.25C14.5319 17.4583 14.2819 17.5625 13.9902 17.5625C13.6986 17.5625 13.4486 17.4583 13.2402 17.25C13.0319 17.0417 12.9277 16.7917 12.9277 16.5C12.9277 16.2083 13.0319 15.9583 13.2402 15.75C13.4486 15.5417 13.6986 15.4375 13.9902 15.4375C14.2819 15.4375 14.5319 15.5417 14.7402 15.75C14.9486 15.9583 15.0527 16.2083 15.0527 16.5Z" fill="#98A5C3"/>
</svg>
