<svg width="13" height="13" viewBox="0 0 13 13" fill="none" xmlns="http://www.w3.org/2000/svg">
<path d="M6.06055 10.4001L8.53055 7.92006C8.98388 7.47339 9.29055 6.94673 9.45055 6.34006C9.60388 5.74673 9.60388 5.15339 9.45055 4.56006C9.29055 3.95339 8.98555 3.42506 8.53555 2.97506C8.08555 2.52506 7.55721 2.22006 6.95055 2.06006C6.35721 1.90673 5.76388 1.90673 5.17055 2.06006C4.56388 2.22006 4.03555 2.52506 3.58555 2.97506C3.13555 3.42506 2.83055 3.95339 2.67055 4.56006C2.51721 5.15339 2.51721 5.74673 2.67055 6.34006C2.83055 6.94673 3.13721 7.47339 3.59055 7.92006L6.06055 10.4001ZM6.06055 11.8101L2.88055 8.63006C2.30055 8.05673 1.91055 7.37673 1.71055 6.59006C1.51055 5.83006 1.51055 5.07006 1.71055 4.31006C1.91055 3.52339 2.29888 2.84173 2.87555 2.26506C3.45221 1.68839 4.13388 1.29673 4.92055 1.09006C5.68055 0.896726 6.44055 0.896726 7.20055 1.09006C7.98721 1.29673 8.66888 1.68839 9.24555 2.26506C9.82221 2.84173 10.2105 3.52339 10.4105 4.31006C10.6105 5.07006 10.6105 5.83006 10.4105 6.59006C10.2105 7.37673 9.82055 8.05673 9.24055 8.63006L6.06055 11.8101ZM6.06055 6.45006C6.24055 6.45006 6.40721 6.40506 6.56055 6.31506C6.71388 6.22506 6.83555 6.10339 6.92555 5.95006C7.01555 5.79673 7.06055 5.63006 7.06055 5.45006C7.06055 5.27006 7.01555 5.10339 6.92555 4.95006C6.83555 4.79673 6.71388 4.67506 6.56055 4.58506C6.40721 4.49506 6.24055 4.45006 6.06055 4.45006C5.88055 4.45006 5.71388 4.49506 5.56055 4.58506C5.40721 4.67506 5.28555 4.79673 5.19555 4.95006C5.10555 5.10339 5.06055 5.27006 5.06055 5.45006C5.06055 5.63006 5.10555 5.79673 5.19555 5.95006C5.28555 6.10339 5.40721 6.22506 5.56055 6.31506C5.71388 6.40506 5.88055 6.45006 6.06055 6.45006ZM6.06055 7.45006C5.70055 7.45006 5.36721 7.36006 5.06055 7.18006C4.75388 7.00006 4.51055 6.75673 4.33055 6.45006C4.15055 6.14339 4.06055 5.80839 4.06055 5.44506C4.06055 5.08173 4.15055 4.74839 4.33055 4.44506C4.51055 4.14173 4.75388 3.90006 5.06055 3.72006C5.36721 3.54006 5.70055 3.45006 6.06055 3.45006C6.42055 3.45006 6.75388 3.54006 7.06055 3.72006C7.36721 3.90006 7.61055 4.14173 7.79055 4.44506C7.97055 4.74839 8.06055 5.08173 8.06055 5.44506C8.06055 5.80839 7.97055 6.14339 7.79055 6.45006C7.61055 6.75673 7.36721 7.00006 7.06055 7.18006C6.75388 7.36006 6.42055 7.45006 6.06055 7.45006Z" fill="#98A5C3"/>
</svg>
