<svg width="41" height="41" viewBox="0 0 41 41" fill="none" xmlns="http://www.w3.org/2000/svg">
<rect x="0.5" y="0.689941" width="40" height="40" rx="20" fill="#0CC763" fill-opacity="0.15"/>
<rect x="1" y="1.18994" width="39" height="39" rx="19.5" stroke="#0CC763" stroke-opacity="0.25"/>
<path opacity="0.2" d="M28 12.4399H13C12.8011 12.4399 12.6103 12.519 12.4697 12.6596C12.329 12.8003 12.25 12.991 12.25 13.1899V28.1899C12.25 28.3889 12.329 28.5796 12.4697 28.7203C12.6103 28.8609 12.8011 28.9399 13 28.9399H28C28.1989 28.9399 28.3897 28.8609 28.5303 28.7203C28.671 28.5796 28.75 28.3889 28.75 28.1899V13.1899C28.75 12.991 28.671 12.8003 28.5303 12.6596C28.3897 12.519 28.1989 12.4399 28 12.4399ZM13.9169 28.9399C14.2568 27.4484 15.0934 26.1165 16.2895 25.1626C17.4855 24.2088 18.9702 23.6895 20.5 23.6899C19.7583 23.6899 19.0333 23.47 18.4166 23.058C17.7999 22.6459 17.3193 22.0602 17.0355 21.375C16.7516 20.6898 16.6774 19.9358 16.8221 19.2084C16.9667 18.4809 17.3239 17.8127 17.8483 17.2883C18.3728 16.7638 19.041 16.4067 19.7684 16.262C20.4958 16.1173 21.2498 16.1916 21.9351 16.4754C22.6203 16.7592 23.206 17.2399 23.618 17.8566C24.0301 18.4732 24.25 19.1983 24.25 19.9399C24.25 20.9345 23.8549 21.8883 23.1517 22.5916C22.4484 23.2949 21.4946 23.6899 20.5 23.6899C22.0298 23.6895 23.5145 24.2088 24.7105 25.1626C25.9066 26.1165 26.7432 27.4484 27.0831 28.9399H13.9169Z" fill="#0CC763"/>
<path d="M28 11.6899H13C12.6022 11.6899 12.2206 11.848 11.9393 12.1293C11.658 12.4106 11.5 12.7921 11.5 13.1899V28.1899C11.5 28.5878 11.658 28.9693 11.9393 29.2506C12.2206 29.5319 12.6022 29.6899 13 29.6899H28C28.3978 29.6899 28.7794 29.5319 29.0607 29.2506C29.342 28.9693 29.5 28.5878 29.5 28.1899V13.1899C29.5 12.7921 29.342 12.4106 29.0607 12.1293C28.7794 11.848 28.3978 11.6899 28 11.6899ZM17.5 19.9399C17.5 19.3466 17.6759 18.7666 18.0056 18.2732C18.3352 17.7799 18.8038 17.3954 19.3519 17.1683C19.9001 16.9412 20.5033 16.8818 21.0853 16.9976C21.6672 17.1133 22.2018 17.3991 22.6213 17.8186C23.0409 18.2382 23.3266 18.7727 23.4424 19.3547C23.5581 19.9366 23.4987 20.5398 23.2716 21.088C23.0446 21.6362 22.6601 22.1047 22.1667 22.4344C21.6734 22.764 21.0933 22.9399 20.5 22.9399C19.7044 22.9399 18.9413 22.6239 18.3787 22.0613C17.8161 21.4987 17.5 20.7356 17.5 19.9399ZM14.9378 28.1899C15.3219 27.2453 15.9389 26.4132 16.7313 25.7712C17.7984 24.9097 19.1285 24.4399 20.5 24.4399C21.8715 24.4399 23.2016 24.9097 24.2687 25.7712C25.0611 26.4132 25.6781 27.2453 26.0622 28.1899H14.9378ZM28 28.1899H27.6559C27.3225 27.1282 26.7567 26.1541 25.9995 25.3385C25.2423 24.523 24.3129 23.8865 23.2787 23.4753C24.015 22.8973 24.5527 22.1041 24.8169 21.2062C25.0812 20.3083 25.0589 19.3503 24.7531 18.4657C24.4474 17.581 23.8734 16.8137 23.111 16.2706C22.3487 15.7275 21.436 15.4357 20.5 15.4357C19.564 15.4357 18.6513 15.7275 17.889 16.2706C17.1267 16.8137 16.5526 17.581 16.2469 18.4657C15.9411 19.3503 15.9188 20.3083 16.1831 21.2062C16.4473 22.1041 16.985 22.8973 17.7213 23.4753C16.6871 23.8865 15.7577 24.523 15.0005 25.3385C14.2433 26.1541 13.6775 27.1282 13.3441 28.1899H13V13.1899H28V28.1899Z" fill="#0CC763"/>
</svg>
