<svg width="40" height="40" viewBox="0 0 40 40" fill="none" xmlns="http://www.w3.org/2000/svg">
<rect width="40" height="40" rx="20" fill="#FE549B" fill-opacity="0.15"/>
<mask id="path-2-outside-1_2197_13619" maskUnits="userSpaceOnUse" x="7" y="20.791" width="26" height="12" fill="black">
<rect fill="white" x="7" y="20.791" width="26" height="12"/>
<path d="M16.5617 22.0374C16.6493 22.061 16.7369 22.0845 16.8245 22.1079C17.0077 22.157 17.1907 22.2067 17.3735 22.257C17.6467 22.332 17.9205 22.4047 18.1945 22.4768C18.6952 22.6087 19.1954 22.7423 19.6955 22.8762C19.8344 22.9134 19.9733 22.9504 20.1122 22.9874C20.6774 23.1381 21.2424 23.2898 21.8069 23.4435C21.9122 23.4722 22.0176 23.5007 22.123 23.5292C22.2977 23.5767 22.4722 23.6252 22.6467 23.6741C22.6947 23.6871 22.7428 23.7001 22.7924 23.7134C23.0904 23.7987 23.3288 23.9202 23.5831 24.096C23.6282 24.1249 23.6733 24.1538 23.7197 24.1835C23.9975 24.4531 24.1518 24.7867 24.2691 25.1509C24.2871 25.2061 24.305 25.2613 24.3235 25.3181C24.3367 25.3598 24.35 25.4014 24.3637 25.4442C25.2449 24.9433 26.125 24.4405 27.0034 23.9347C27.1801 23.833 27.3567 23.7314 27.5334 23.6297C27.5925 23.5957 27.6517 23.5616 27.7126 23.5266C27.8288 23.4598 27.9451 23.393 28.0614 23.3264C28.293 23.1937 28.5244 23.0609 28.7532 22.9234C29.2966 22.5984 29.8246 22.386 30.4606 22.5243C31.0625 22.6893 31.4877 23.0026 31.8217 23.5309C32.0462 23.9878 32.0364 24.5717 31.915 25.0578C31.7106 25.5893 31.3685 25.9242 30.8779 26.1994C30.8332 26.2253 30.7885 26.2512 30.7424 26.2779C30.6452 26.3341 30.5478 26.3899 30.4502 26.4454C30.2912 26.5358 30.1328 26.6272 29.9744 26.7187C29.689 26.8836 29.4031 27.0476 29.117 27.2113C28.8332 27.3738 28.5498 27.5369 28.2664 27.6999C28.1536 27.7648 28.0409 27.8296 27.9281 27.8944C27.8723 27.9265 27.8165 27.9586 27.759 27.9916C27.5899 28.0889 27.4208 28.1861 27.2517 28.2833C27.1958 28.3154 27.1399 28.3475 27.0824 28.3806C26.9702 28.4452 26.8579 28.5097 26.7457 28.5742C26.3963 28.7751 26.047 28.976 25.6976 29.177C25.5268 29.2752 25.3558 29.3734 25.1849 29.4715C25.0056 29.5744 24.8267 29.6777 24.6482 29.7819C24.5979 29.811 24.5979 29.811 24.5465 29.8408C24.4635 29.889 24.3806 29.9374 24.2978 29.9858C23.448 30.425 22.393 30.0806 21.519 29.8874C21.3418 29.8485 21.1644 29.8108 20.9869 29.7731C20.5762 29.6855 20.1659 29.5965 19.7555 29.5073C19.231 29.3933 18.7064 29.2797 18.1814 29.1678C17.9709 29.1229 17.7607 29.0772 17.5505 29.0308C17.3895 28.9955 17.2282 28.9613 17.067 28.9268C17.0093 28.9138 16.9516 28.9009 16.8921 28.8875C16.4374 28.7921 16.2078 28.8688 15.8102 29.1065C15.755 29.1393 15.6999 29.172 15.6431 29.2058C15.6016 29.2308 15.5602 29.2558 15.5175 29.2815C15.576 29.4356 15.6332 29.5582 15.7256 29.6964C15.7614 29.8681 15.7614 29.8681 15.7256 30.0594C15.639 30.1352 15.639 30.1352 15.5236 30.2074C15.4809 30.2343 15.4382 30.2611 15.3943 30.2887C15.1677 30.424 14.9386 30.5539 14.7077 30.6816C14.1609 30.9867 13.619 31.2996 13.0783 31.6152C13.0322 31.642 12.9862 31.6688 12.9387 31.6964C12.8595 31.7426 12.7805 31.7891 12.7016 31.8359C12.4795 31.9664 12.3428 32.0392 12.0831 31.978C11.9452 31.844 11.8627 31.6786 11.7709 31.5113C11.7344 31.4463 11.6979 31.3812 11.6613 31.3162C11.5973 31.2019 11.5335 31.0874 11.4702 30.9726C11.2874 30.6412 11.0977 30.3142 10.9058 29.9881C10.6361 29.5295 10.3697 29.0692 10.1057 28.6074C9.81791 28.1041 9.52734 27.6025 9.23373 27.1025C8.96535 26.6453 8.69967 26.1866 8.43454 25.7275C8.38811 25.6471 8.38811 25.6471 8.34074 25.5652C8.3135 25.518 8.28625 25.4708 8.25818 25.4221C8.2053 25.3314 8.15074 25.2417 8.09473 25.1529C7.9908 24.9708 7.98081 24.8721 8.02426 24.6664C8.10685 24.5939 8.10685 24.5939 8.21878 24.5234C8.26144 24.4965 8.30409 24.4696 8.34804 24.4419C8.61811 24.28 8.89131 24.1239 9.1658 23.9696C9.29499 23.8968 9.42413 23.824 9.55323 23.751C9.58594 23.7326 9.61864 23.7141 9.65234 23.6951C9.88091 23.5657 10.1073 23.4329 10.333 23.2985C10.3943 23.2622 10.4557 23.226 10.5171 23.1897C10.6329 23.1212 10.7484 23.0521 10.8634 22.9822C11.3645 22.6873 11.3645 22.6873 11.6668 22.7478C11.8749 22.9924 11.8749 22.9924 11.8749 23.1626C12.2377 22.9913 12.5847 22.8042 12.9287 22.5987C13.2244 22.4229 13.5224 22.2549 13.8296 22.0996C13.8623 22.0827 13.8951 22.0658 13.9289 22.0484C14.7729 21.6296 15.6927 21.7931 16.5617 22.0374ZM13.4588 22.9455C13.4044 22.9761 13.3499 23.0068 13.2938 23.0383C12.9351 23.2418 12.5853 23.4572 12.2392 23.6812C12.3024 23.8858 12.3757 24.0636 12.4854 24.2475C12.5281 24.3198 12.5281 24.3198 12.5717 24.3935C12.6026 24.4451 12.6334 24.4966 12.6652 24.5497C12.7317 24.6619 12.7981 24.7742 12.8644 24.8864C12.8988 24.9443 12.9331 25.0021 12.9684 25.0618C13.1337 25.3416 13.2962 25.623 13.4588 25.9045C13.4909 25.96 13.523 26.0155 13.5561 26.0727C13.7238 26.3626 13.8913 26.6525 14.0586 26.9426C14.2211 27.224 14.384 27.5052 14.5473 27.7861C14.6016 27.8796 14.6558 27.9731 14.7099 28.0667C14.7748 28.1792 14.8403 28.2913 14.9061 28.4032C14.9241 28.4347 14.9421 28.4662 14.9607 28.4987C15.0665 28.6785 15.0665 28.6785 15.2573 28.763C15.3548 28.7222 15.3548 28.7222 15.4533 28.6546C15.5099 28.6193 15.5099 28.6193 15.5677 28.5832C15.6463 28.5328 15.7248 28.4822 15.8031 28.4313C15.8411 28.4077 15.8791 28.384 15.9183 28.3597C15.9525 28.3376 15.9866 28.3156 16.0218 28.2929C16.3519 28.1597 16.7325 28.2808 17.0662 28.3514C17.1214 28.3628 17.1766 28.3742 17.2335 28.3859C17.4156 28.4236 17.5976 28.4617 17.7796 28.4999C17.9069 28.5263 18.0341 28.5526 18.1613 28.579C18.4622 28.6413 18.763 28.704 19.0638 28.7668C19.4367 28.8447 19.8097 28.9221 20.1828 28.9995C20.6802 29.1027 21.1777 29.2062 21.6751 29.31C21.7294 29.3213 21.7838 29.3326 21.8398 29.3442C22.0644 29.3911 22.2889 29.4382 22.5129 29.4878C22.5766 29.5018 22.6403 29.5158 22.7059 29.5303C22.7573 29.5419 22.8087 29.5535 22.8616 29.5655C23.7011 29.7185 24.2419 29.3617 24.9426 28.9477C25.0523 28.8834 25.1621 28.8191 25.2718 28.7549C25.328 28.722 25.3841 28.6891 25.4419 28.6552C25.7213 28.492 26.0019 28.3309 26.2825 28.1699C26.3386 28.1376 26.3948 28.1054 26.4527 28.0722C26.5667 28.0067 26.6807 27.9412 26.7947 27.8758C27.1334 27.6813 27.472 27.4866 27.8106 27.2918C28.0949 27.1283 28.3794 26.9649 28.664 26.8018C29.0001 26.6091 29.3358 26.4158 29.6714 26.2221C29.726 26.1906 29.7806 26.1591 29.8368 26.1267C29.9943 26.0356 30.1516 25.9442 30.3088 25.8526C30.3556 25.8256 30.4023 25.7986 30.4505 25.7708C30.8909 25.513 31.2304 25.2765 31.3886 24.7701C31.4348 24.4134 31.4498 24.0393 31.256 23.7231C30.9274 23.3155 30.5858 23.1031 30.0681 23.0362C29.4991 23.1047 29.0379 23.4145 28.5582 23.7039C28.2992 23.8584 28.037 24.0076 27.7753 24.1576C27.6583 24.2248 27.5413 24.2919 27.4242 24.3591C27.3655 24.3928 27.3067 24.4266 27.2462 24.4613C27.0739 24.5602 26.9017 24.6592 26.7295 24.7582C26.6738 24.7902 26.6182 24.8221 26.5609 24.8551C26.4494 24.9192 26.338 24.9833 26.2266 25.0475C25.9627 25.1995 25.6986 25.351 25.4336 25.501C25.3086 25.5718 25.1837 25.6428 25.0588 25.7139C24.9707 25.7639 24.8825 25.8135 24.7942 25.8631C24.7408 25.8936 24.6874 25.924 24.6324 25.9553C24.5854 25.9819 24.5384 26.0084 24.49 26.0358C24.2668 26.1817 24.1372 26.3431 24.0124 26.5753C23.763 26.9994 23.3966 27.2935 22.924 27.442C22.2946 27.5696 21.6887 27.4227 21.086 27.2529C21.0047 27.2308 20.9235 27.2089 20.8422 27.187C20.6309 27.1299 20.4201 27.0715 20.2092 27.0129C19.9936 26.9532 19.7777 26.8947 19.5618 26.8361C19.2474 26.7506 18.9331 26.6647 18.6191 26.5777C18.5563 26.5603 18.4935 26.5429 18.4288 26.525C18.325 26.4954 18.2218 26.4635 18.1193 26.4295C18.0868 26.3096 18.0868 26.3096 18.0673 26.1702C18.1188 26.0932 18.1188 26.0932 18.1713 26.0147C18.4279 25.9914 18.6452 26.0324 18.8919 26.1003C18.9254 26.1094 18.959 26.1185 18.9936 26.1279C19.0659 26.1476 19.1381 26.1675 19.2103 26.1875C19.3252 26.2194 19.4401 26.2506 19.5552 26.2816C19.8821 26.3699 20.2087 26.4593 20.5352 26.5493C20.7355 26.6044 20.936 26.6587 21.1367 26.7127C21.2125 26.7332 21.2882 26.754 21.3639 26.7752C21.9017 26.9255 22.4403 27.0733 22.9749 26.8443C23.3269 26.6442 23.5946 26.3552 23.7165 25.9658C23.8151 25.5034 23.6868 25.1233 23.44 24.728C23.0638 24.3635 22.6108 24.2558 22.1188 24.1272C22.0371 24.1053 21.9555 24.0834 21.8738 24.0613C21.693 24.0127 21.5122 23.9644 21.3312 23.9163C21.0143 23.8319 20.6979 23.7454 20.3816 23.6588C19.8499 23.5134 19.3179 23.3693 18.7856 23.2263C18.4782 23.1436 18.1709 23.0606 17.8638 22.9766C17.5606 22.8937 17.2571 22.8119 16.9534 22.7307C16.8396 22.7001 16.7258 22.6692 16.6122 22.6378C15.396 22.3029 14.5778 22.3007 13.4588 22.9455ZM11.0139 23.5797C10.9848 23.5963 10.9556 23.6129 10.9256 23.63C10.83 23.6846 10.7345 23.7396 10.6391 23.7946C10.5734 23.8322 10.5077 23.8698 10.4421 23.9074C9.8587 24.2419 9.27876 24.5821 8.70073 24.9257C8.77225 25.1143 8.85706 25.2872 8.95603 25.4629C8.98588 25.516 9.01572 25.5691 9.04647 25.6238C9.07834 25.6801 9.11021 25.7363 9.14304 25.7943C9.17601 25.8527 9.20898 25.9111 9.24296 25.9713C9.44225 26.3235 9.64432 26.6737 9.85128 27.0214C10.046 27.3487 10.237 27.6781 10.4277 28.0078C10.4608 28.0652 10.494 28.1225 10.5282 28.1816C10.6302 28.3581 10.7322 28.5346 10.8342 28.7111C11.3346 29.5769 11.8371 30.4414 12.3433 31.3039C12.529 31.2337 12.6999 31.1516 12.8732 31.0549C12.9513 31.0114 12.9513 31.0114 13.0309 30.9671C13.1139 30.9204 13.1139 30.9204 13.1986 30.8728C13.2556 30.841 13.3126 30.8091 13.3713 30.7762C13.9355 30.4591 14.4934 30.1316 15.0492 29.8001C14.8259 29.3352 14.5811 28.89 14.3164 28.4476C14.1381 28.1493 13.9644 27.8485 13.7905 27.5476C13.7574 27.4903 13.7242 27.4329 13.69 27.3738C13.6219 27.256 13.5538 27.1382 13.4858 27.0204C13.3219 26.7369 13.1578 26.4536 12.9937 26.1702C12.9292 26.0587 12.8646 25.9471 12.8 25.8356C12.6826 25.6328 12.5652 25.4301 12.4478 25.2274C11.7422 24.0095 11.7422 24.0095 11.4066 23.4219C11.2487 23.4219 11.1502 23.5017 11.0139 23.5797Z"/>
</mask>
<path d="M16.5617 22.0374C16.6493 22.061 16.7369 22.0845 16.8245 22.1079C17.0077 22.157 17.1907 22.2067 17.3735 22.257C17.6467 22.332 17.9205 22.4047 18.1945 22.4768C18.6952 22.6087 19.1954 22.7423 19.6955 22.8762C19.8344 22.9134 19.9733 22.9504 20.1122 22.9874C20.6774 23.1381 21.2424 23.2898 21.8069 23.4435C21.9122 23.4722 22.0176 23.5007 22.123 23.5292C22.2977 23.5767 22.4722 23.6252 22.6467 23.6741C22.6947 23.6871 22.7428 23.7001 22.7924 23.7134C23.0904 23.7987 23.3288 23.9202 23.5831 24.096C23.6282 24.1249 23.6733 24.1538 23.7197 24.1835C23.9975 24.4531 24.1518 24.7867 24.2691 25.1509C24.2871 25.2061 24.305 25.2613 24.3235 25.3181C24.3367 25.3598 24.35 25.4014 24.3637 25.4442C25.2449 24.9433 26.125 24.4405 27.0034 23.9347C27.1801 23.833 27.3567 23.7314 27.5334 23.6297C27.5925 23.5957 27.6517 23.5616 27.7126 23.5266C27.8288 23.4598 27.9451 23.393 28.0614 23.3264C28.293 23.1937 28.5244 23.0609 28.7532 22.9234C29.2966 22.5984 29.8246 22.386 30.4606 22.5243C31.0625 22.6893 31.4877 23.0026 31.8217 23.5309C32.0462 23.9878 32.0364 24.5717 31.915 25.0578C31.7106 25.5893 31.3685 25.9242 30.8779 26.1994C30.8332 26.2253 30.7885 26.2512 30.7424 26.2779C30.6452 26.3341 30.5478 26.3899 30.4502 26.4454C30.2912 26.5358 30.1328 26.6272 29.9744 26.7187C29.689 26.8836 29.4031 27.0476 29.117 27.2113C28.8332 27.3738 28.5498 27.5369 28.2664 27.6999C28.1536 27.7648 28.0409 27.8296 27.9281 27.8944C27.8723 27.9265 27.8165 27.9586 27.759 27.9916C27.5899 28.0889 27.4208 28.1861 27.2517 28.2833C27.1958 28.3154 27.1399 28.3475 27.0824 28.3806C26.9702 28.4452 26.8579 28.5097 26.7457 28.5742C26.3963 28.7751 26.047 28.976 25.6976 29.177C25.5268 29.2752 25.3558 29.3734 25.1849 29.4715C25.0056 29.5744 24.8267 29.6777 24.6482 29.7819C24.5979 29.811 24.5979 29.811 24.5465 29.8408C24.4635 29.889 24.3806 29.9374 24.2978 29.9858C23.448 30.425 22.393 30.0806 21.519 29.8874C21.3418 29.8485 21.1644 29.8108 20.9869 29.7731C20.5762 29.6855 20.1659 29.5965 19.7555 29.5073C19.231 29.3933 18.7064 29.2797 18.1814 29.1678C17.9709 29.1229 17.7607 29.0772 17.5505 29.0308C17.3895 28.9955 17.2282 28.9613 17.067 28.9268C17.0093 28.9138 16.9516 28.9009 16.8921 28.8875C16.4374 28.7921 16.2078 28.8688 15.8102 29.1065C15.755 29.1393 15.6999 29.172 15.6431 29.2058C15.6016 29.2308 15.5602 29.2558 15.5175 29.2815C15.576 29.4356 15.6332 29.5582 15.7256 29.6964C15.7614 29.8681 15.7614 29.8681 15.7256 30.0594C15.639 30.1352 15.639 30.1352 15.5236 30.2074C15.4809 30.2343 15.4382 30.2611 15.3943 30.2887C15.1677 30.424 14.9386 30.5539 14.7077 30.6816C14.1609 30.9867 13.619 31.2996 13.0783 31.6152C13.0322 31.642 12.9862 31.6688 12.9387 31.6964C12.8595 31.7426 12.7805 31.7891 12.7016 31.8359C12.4795 31.9664 12.3428 32.0392 12.0831 31.978C11.9452 31.844 11.8627 31.6786 11.7709 31.5113C11.7344 31.4463 11.6979 31.3812 11.6613 31.3162C11.5973 31.2019 11.5335 31.0874 11.4702 30.9726C11.2874 30.6412 11.0977 30.3142 10.9058 29.9881C10.6361 29.5295 10.3697 29.0692 10.1057 28.6074C9.81791 28.1041 9.52734 27.6025 9.23373 27.1025C8.96535 26.6453 8.69967 26.1866 8.43454 25.7275C8.38811 25.6471 8.38811 25.6471 8.34074 25.5652C8.3135 25.518 8.28625 25.4708 8.25818 25.4221C8.2053 25.3314 8.15074 25.2417 8.09473 25.1529C7.9908 24.9708 7.98081 24.8721 8.02426 24.6664C8.10685 24.5939 8.10685 24.5939 8.21878 24.5234C8.26144 24.4965 8.30409 24.4696 8.34804 24.4419C8.61811 24.28 8.89131 24.1239 9.1658 23.9696C9.29499 23.8968 9.42413 23.824 9.55323 23.751C9.58594 23.7326 9.61864 23.7141 9.65234 23.6951C9.88091 23.5657 10.1073 23.4329 10.333 23.2985C10.3943 23.2622 10.4557 23.226 10.5171 23.1897C10.6329 23.1212 10.7484 23.0521 10.8634 22.9822C11.3645 22.6873 11.3645 22.6873 11.6668 22.7478C11.8749 22.9924 11.8749 22.9924 11.8749 23.1626C12.2377 22.9913 12.5847 22.8042 12.9287 22.5987C13.2244 22.4229 13.5224 22.2549 13.8296 22.0996C13.8623 22.0827 13.8951 22.0658 13.9289 22.0484C14.7729 21.6296 15.6927 21.7931 16.5617 22.0374ZM13.4588 22.9455C13.4044 22.9761 13.3499 23.0068 13.2938 23.0383C12.9351 23.2418 12.5853 23.4572 12.2392 23.6812C12.3024 23.8858 12.3757 24.0636 12.4854 24.2475C12.5281 24.3198 12.5281 24.3198 12.5717 24.3935C12.6026 24.4451 12.6334 24.4966 12.6652 24.5497C12.7317 24.6619 12.7981 24.7742 12.8644 24.8864C12.8988 24.9443 12.9331 25.0021 12.9684 25.0618C13.1337 25.3416 13.2962 25.623 13.4588 25.9045C13.4909 25.96 13.523 26.0155 13.5561 26.0727C13.7238 26.3626 13.8913 26.6525 14.0586 26.9426C14.2211 27.224 14.384 27.5052 14.5473 27.7861C14.6016 27.8796 14.6558 27.9731 14.7099 28.0667C14.7748 28.1792 14.8403 28.2913 14.9061 28.4032C14.9241 28.4347 14.9421 28.4662 14.9607 28.4987C15.0665 28.6785 15.0665 28.6785 15.2573 28.763C15.3548 28.7222 15.3548 28.7222 15.4533 28.6546C15.5099 28.6193 15.5099 28.6193 15.5677 28.5832C15.6463 28.5328 15.7248 28.4822 15.8031 28.4313C15.8411 28.4077 15.8791 28.384 15.9183 28.3597C15.9525 28.3376 15.9866 28.3156 16.0218 28.2929C16.3519 28.1597 16.7325 28.2808 17.0662 28.3514C17.1214 28.3628 17.1766 28.3742 17.2335 28.3859C17.4156 28.4236 17.5976 28.4617 17.7796 28.4999C17.9069 28.5263 18.0341 28.5526 18.1613 28.579C18.4622 28.6413 18.763 28.704 19.0638 28.7668C19.4367 28.8447 19.8097 28.9221 20.1828 28.9995C20.6802 29.1027 21.1777 29.2062 21.6751 29.31C21.7294 29.3213 21.7838 29.3326 21.8398 29.3442C22.0644 29.3911 22.2889 29.4382 22.5129 29.4878C22.5766 29.5018 22.6403 29.5158 22.7059 29.5303C22.7573 29.5419 22.8087 29.5535 22.8616 29.5655C23.7011 29.7185 24.2419 29.3617 24.9426 28.9477C25.0523 28.8834 25.1621 28.8191 25.2718 28.7549C25.328 28.722 25.3841 28.6891 25.4419 28.6552C25.7213 28.492 26.0019 28.3309 26.2825 28.1699C26.3386 28.1376 26.3948 28.1054 26.4527 28.0722C26.5667 28.0067 26.6807 27.9412 26.7947 27.8758C27.1334 27.6813 27.472 27.4866 27.8106 27.2918C28.0949 27.1283 28.3794 26.9649 28.664 26.8018C29.0001 26.6091 29.3358 26.4158 29.6714 26.2221C29.726 26.1906 29.7806 26.1591 29.8368 26.1267C29.9943 26.0356 30.1516 25.9442 30.3088 25.8526C30.3556 25.8256 30.4023 25.7986 30.4505 25.7708C30.8909 25.513 31.2304 25.2765 31.3886 24.7701C31.4348 24.4134 31.4498 24.0393 31.256 23.7231C30.9274 23.3155 30.5858 23.1031 30.0681 23.0362C29.4991 23.1047 29.0379 23.4145 28.5582 23.7039C28.2992 23.8584 28.037 24.0076 27.7753 24.1576C27.6583 24.2248 27.5413 24.2919 27.4242 24.3591C27.3655 24.3928 27.3067 24.4266 27.2462 24.4613C27.0739 24.5602 26.9017 24.6592 26.7295 24.7582C26.6738 24.7902 26.6182 24.8221 26.5609 24.8551C26.4494 24.9192 26.338 24.9833 26.2266 25.0475C25.9627 25.1995 25.6986 25.351 25.4336 25.501C25.3086 25.5718 25.1837 25.6428 25.0588 25.7139C24.9707 25.7639 24.8825 25.8135 24.7942 25.8631C24.7408 25.8936 24.6874 25.924 24.6324 25.9553C24.5854 25.9819 24.5384 26.0084 24.49 26.0358C24.2668 26.1817 24.1372 26.3431 24.0124 26.5753C23.763 26.9994 23.3966 27.2935 22.924 27.442C22.2946 27.5696 21.6887 27.4227 21.086 27.2529C21.0047 27.2308 20.9235 27.2089 20.8422 27.187C20.6309 27.1299 20.4201 27.0715 20.2092 27.0129C19.9936 26.9532 19.7777 26.8947 19.5618 26.8361C19.2474 26.7506 18.9331 26.6647 18.6191 26.5777C18.5563 26.5603 18.4935 26.5429 18.4288 26.525C18.325 26.4954 18.2218 26.4635 18.1193 26.4295C18.0868 26.3096 18.0868 26.3096 18.0673 26.1702C18.1188 26.0932 18.1188 26.0932 18.1713 26.0147C18.4279 25.9914 18.6452 26.0324 18.8919 26.1003C18.9254 26.1094 18.959 26.1185 18.9936 26.1279C19.0659 26.1476 19.1381 26.1675 19.2103 26.1875C19.3252 26.2194 19.4401 26.2506 19.5552 26.2816C19.8821 26.3699 20.2087 26.4593 20.5352 26.5493C20.7355 26.6044 20.936 26.6587 21.1367 26.7127C21.2125 26.7332 21.2882 26.754 21.3639 26.7752C21.9017 26.9255 22.4403 27.0733 22.9749 26.8443C23.3269 26.6442 23.5946 26.3552 23.7165 25.9658C23.8151 25.5034 23.6868 25.1233 23.44 24.728C23.0638 24.3635 22.6108 24.2558 22.1188 24.1272C22.0371 24.1053 21.9555 24.0834 21.8738 24.0613C21.693 24.0127 21.5122 23.9644 21.3312 23.9163C21.0143 23.8319 20.6979 23.7454 20.3816 23.6588C19.8499 23.5134 19.3179 23.3693 18.7856 23.2263C18.4782 23.1436 18.1709 23.0606 17.8638 22.9766C17.5606 22.8937 17.2571 22.8119 16.9534 22.7307C16.8396 22.7001 16.7258 22.6692 16.6122 22.6378C15.396 22.3029 14.5778 22.3007 13.4588 22.9455ZM11.0139 23.5797C10.9848 23.5963 10.9556 23.6129 10.9256 23.63C10.83 23.6846 10.7345 23.7396 10.6391 23.7946C10.5734 23.8322 10.5077 23.8698 10.4421 23.9074C9.8587 24.2419 9.27876 24.5821 8.70073 24.9257C8.77225 25.1143 8.85706 25.2872 8.95603 25.4629C8.98588 25.516 9.01572 25.5691 9.04647 25.6238C9.07834 25.6801 9.11021 25.7363 9.14304 25.7943C9.17601 25.8527 9.20898 25.9111 9.24296 25.9713C9.44225 26.3235 9.64432 26.6737 9.85128 27.0214C10.046 27.3487 10.237 27.6781 10.4277 28.0078C10.4608 28.0652 10.494 28.1225 10.5282 28.1816C10.6302 28.3581 10.7322 28.5346 10.8342 28.7111C11.3346 29.5769 11.8371 30.4414 12.3433 31.3039C12.529 31.2337 12.6999 31.1516 12.8732 31.0549C12.9513 31.0114 12.9513 31.0114 13.0309 30.9671C13.1139 30.9204 13.1139 30.9204 13.1986 30.8728C13.2556 30.841 13.3126 30.8091 13.3713 30.7762C13.9355 30.4591 14.4934 30.1316 15.0492 29.8001C14.8259 29.3352 14.5811 28.89 14.3164 28.4476C14.1381 28.1493 13.9644 27.8485 13.7905 27.5476C13.7574 27.4903 13.7242 27.4329 13.69 27.3738C13.6219 27.256 13.5538 27.1382 13.4858 27.0204C13.3219 26.7369 13.1578 26.4536 12.9937 26.1702C12.9292 26.0587 12.8646 25.9471 12.8 25.8356C12.6826 25.6328 12.5652 25.4301 12.4478 25.2274C11.7422 24.0095 11.7422 24.0095 11.4066 23.4219C11.2487 23.4219 11.1502 23.5017 11.0139 23.5797Z" fill="#FE549B"/>
<path d="M16.5617 22.0374C16.6493 22.061 16.7369 22.0845 16.8245 22.1079C17.0077 22.157 17.1907 22.2067 17.3735 22.257C17.6467 22.332 17.9205 22.4047 18.1945 22.4768C18.6952 22.6087 19.1954 22.7423 19.6955 22.8762C19.8344 22.9134 19.9733 22.9504 20.1122 22.9874C20.6774 23.1381 21.2424 23.2898 21.8069 23.4435C21.9122 23.4722 22.0176 23.5007 22.123 23.5292C22.2977 23.5767 22.4722 23.6252 22.6467 23.6741C22.6947 23.6871 22.7428 23.7001 22.7924 23.7134C23.0904 23.7987 23.3288 23.9202 23.5831 24.096C23.6282 24.1249 23.6733 24.1538 23.7197 24.1835C23.9975 24.4531 24.1518 24.7867 24.2691 25.1509C24.2871 25.2061 24.305 25.2613 24.3235 25.3181C24.3367 25.3598 24.35 25.4014 24.3637 25.4442C25.2449 24.9433 26.125 24.4405 27.0034 23.9347C27.1801 23.833 27.3567 23.7314 27.5334 23.6297C27.5925 23.5957 27.6517 23.5616 27.7126 23.5266C27.8288 23.4598 27.9451 23.393 28.0614 23.3264C28.293 23.1937 28.5244 23.0609 28.7532 22.9234C29.2966 22.5984 29.8246 22.386 30.4606 22.5243C31.0625 22.6893 31.4877 23.0026 31.8217 23.5309C32.0462 23.9878 32.0364 24.5717 31.915 25.0578C31.7106 25.5893 31.3685 25.9242 30.8779 26.1994C30.8332 26.2253 30.7885 26.2512 30.7424 26.2779C30.6452 26.3341 30.5478 26.3899 30.4502 26.4454C30.2912 26.5358 30.1328 26.6272 29.9744 26.7187C29.689 26.8836 29.4031 27.0476 29.117 27.2113C28.8332 27.3738 28.5498 27.5369 28.2664 27.6999C28.1536 27.7648 28.0409 27.8296 27.9281 27.8944C27.8723 27.9265 27.8165 27.9586 27.759 27.9916C27.5899 28.0889 27.4208 28.1861 27.2517 28.2833C27.1958 28.3154 27.1399 28.3475 27.0824 28.3806C26.9702 28.4452 26.8579 28.5097 26.7457 28.5742C26.3963 28.7751 26.047 28.976 25.6976 29.177C25.5268 29.2752 25.3558 29.3734 25.1849 29.4715C25.0056 29.5744 24.8267 29.6777 24.6482 29.7819C24.5979 29.811 24.5979 29.811 24.5465 29.8408C24.4635 29.889 24.3806 29.9374 24.2978 29.9858C23.448 30.425 22.393 30.0806 21.519 29.8874C21.3418 29.8485 21.1644 29.8108 20.9869 29.7731C20.5762 29.6855 20.1659 29.5965 19.7555 29.5073C19.231 29.3933 18.7064 29.2797 18.1814 29.1678C17.9709 29.1229 17.7607 29.0772 17.5505 29.0308C17.3895 28.9955 17.2282 28.9613 17.067 28.9268C17.0093 28.9138 16.9516 28.9009 16.8921 28.8875C16.4374 28.7921 16.2078 28.8688 15.8102 29.1065C15.755 29.1393 15.6999 29.172 15.6431 29.2058C15.6016 29.2308 15.5602 29.2558 15.5175 29.2815C15.576 29.4356 15.6332 29.5582 15.7256 29.6964C15.7614 29.8681 15.7614 29.8681 15.7256 30.0594C15.639 30.1352 15.639 30.1352 15.5236 30.2074C15.4809 30.2343 15.4382 30.2611 15.3943 30.2887C15.1677 30.424 14.9386 30.5539 14.7077 30.6816C14.1609 30.9867 13.619 31.2996 13.0783 31.6152C13.0322 31.642 12.9862 31.6688 12.9387 31.6964C12.8595 31.7426 12.7805 31.7891 12.7016 31.8359C12.4795 31.9664 12.3428 32.0392 12.0831 31.978C11.9452 31.844 11.8627 31.6786 11.7709 31.5113C11.7344 31.4463 11.6979 31.3812 11.6613 31.3162C11.5973 31.2019 11.5335 31.0874 11.4702 30.9726C11.2874 30.6412 11.0977 30.3142 10.9058 29.9881C10.6361 29.5295 10.3697 29.0692 10.1057 28.6074C9.81791 28.1041 9.52734 27.6025 9.23373 27.1025C8.96535 26.6453 8.69967 26.1866 8.43454 25.7275C8.38811 25.6471 8.38811 25.6471 8.34074 25.5652C8.3135 25.518 8.28625 25.4708 8.25818 25.4221C8.2053 25.3314 8.15074 25.2417 8.09473 25.1529C7.9908 24.9708 7.98081 24.8721 8.02426 24.6664C8.10685 24.5939 8.10685 24.5939 8.21878 24.5234C8.26144 24.4965 8.30409 24.4696 8.34804 24.4419C8.61811 24.28 8.89131 24.1239 9.1658 23.9696C9.29499 23.8968 9.42413 23.824 9.55323 23.751C9.58594 23.7326 9.61864 23.7141 9.65234 23.6951C9.88091 23.5657 10.1073 23.4329 10.333 23.2985C10.3943 23.2622 10.4557 23.226 10.5171 23.1897C10.6329 23.1212 10.7484 23.0521 10.8634 22.9822C11.3645 22.6873 11.3645 22.6873 11.6668 22.7478C11.8749 22.9924 11.8749 22.9924 11.8749 23.1626C12.2377 22.9913 12.5847 22.8042 12.9287 22.5987C13.2244 22.4229 13.5224 22.2549 13.8296 22.0996C13.8623 22.0827 13.8951 22.0658 13.9289 22.0484C14.7729 21.6296 15.6927 21.7931 16.5617 22.0374ZM13.4588 22.9455C13.4044 22.9761 13.3499 23.0068 13.2938 23.0383C12.9351 23.2418 12.5853 23.4572 12.2392 23.6812C12.3024 23.8858 12.3757 24.0636 12.4854 24.2475C12.5281 24.3198 12.5281 24.3198 12.5717 24.3935C12.6026 24.4451 12.6334 24.4966 12.6652 24.5497C12.7317 24.6619 12.7981 24.7742 12.8644 24.8864C12.8988 24.9443 12.9331 25.0021 12.9684 25.0618C13.1337 25.3416 13.2962 25.623 13.4588 25.9045C13.4909 25.96 13.523 26.0155 13.5561 26.0727C13.7238 26.3626 13.8913 26.6525 14.0586 26.9426C14.2211 27.224 14.384 27.5052 14.5473 27.7861C14.6016 27.8796 14.6558 27.9731 14.7099 28.0667C14.7748 28.1792 14.8403 28.2913 14.9061 28.4032C14.9241 28.4347 14.9421 28.4662 14.9607 28.4987C15.0665 28.6785 15.0665 28.6785 15.2573 28.763C15.3548 28.7222 15.3548 28.7222 15.4533 28.6546C15.5099 28.6193 15.5099 28.6193 15.5677 28.5832C15.6463 28.5328 15.7248 28.4822 15.8031 28.4313C15.8411 28.4077 15.8791 28.384 15.9183 28.3597C15.9525 28.3376 15.9866 28.3156 16.0218 28.2929C16.3519 28.1597 16.7325 28.2808 17.0662 28.3514C17.1214 28.3628 17.1766 28.3742 17.2335 28.3859C17.4156 28.4236 17.5976 28.4617 17.7796 28.4999C17.9069 28.5263 18.0341 28.5526 18.1613 28.579C18.4622 28.6413 18.763 28.704 19.0638 28.7668C19.4367 28.8447 19.8097 28.9221 20.1828 28.9995C20.6802 29.1027 21.1777 29.2062 21.6751 29.31C21.7294 29.3213 21.7838 29.3326 21.8398 29.3442C22.0644 29.3911 22.2889 29.4382 22.5129 29.4878C22.5766 29.5018 22.6403 29.5158 22.7059 29.5303C22.7573 29.5419 22.8087 29.5535 22.8616 29.5655C23.7011 29.7185 24.2419 29.3617 24.9426 28.9477C25.0523 28.8834 25.1621 28.8191 25.2718 28.7549C25.328 28.722 25.3841 28.6891 25.4419 28.6552C25.7213 28.492 26.0019 28.3309 26.2825 28.1699C26.3386 28.1376 26.3948 28.1054 26.4527 28.0722C26.5667 28.0067 26.6807 27.9412 26.7947 27.8758C27.1334 27.6813 27.472 27.4866 27.8106 27.2918C28.0949 27.1283 28.3794 26.9649 28.664 26.8018C29.0001 26.6091 29.3358 26.4158 29.6714 26.2221C29.726 26.1906 29.7806 26.1591 29.8368 26.1267C29.9943 26.0356 30.1516 25.9442 30.3088 25.8526C30.3556 25.8256 30.4023 25.7986 30.4505 25.7708C30.8909 25.513 31.2304 25.2765 31.3886 24.7701C31.4348 24.4134 31.4498 24.0393 31.256 23.7231C30.9274 23.3155 30.5858 23.1031 30.0681 23.0362C29.4991 23.1047 29.0379 23.4145 28.5582 23.7039C28.2992 23.8584 28.037 24.0076 27.7753 24.1576C27.6583 24.2248 27.5413 24.2919 27.4242 24.3591C27.3655 24.3928 27.3067 24.4266 27.2462 24.4613C27.0739 24.5602 26.9017 24.6592 26.7295 24.7582C26.6738 24.7902 26.6182 24.8221 26.5609 24.8551C26.4494 24.9192 26.338 24.9833 26.2266 25.0475C25.9627 25.1995 25.6986 25.351 25.4336 25.501C25.3086 25.5718 25.1837 25.6428 25.0588 25.7139C24.9707 25.7639 24.8825 25.8135 24.7942 25.8631C24.7408 25.8936 24.6874 25.924 24.6324 25.9553C24.5854 25.9819 24.5384 26.0084 24.49 26.0358C24.2668 26.1817 24.1372 26.3431 24.0124 26.5753C23.763 26.9994 23.3966 27.2935 22.924 27.442C22.2946 27.5696 21.6887 27.4227 21.086 27.2529C21.0047 27.2308 20.9235 27.2089 20.8422 27.187C20.6309 27.1299 20.4201 27.0715 20.2092 27.0129C19.9936 26.9532 19.7777 26.8947 19.5618 26.8361C19.2474 26.7506 18.9331 26.6647 18.6191 26.5777C18.5563 26.5603 18.4935 26.5429 18.4288 26.525C18.325 26.4954 18.2218 26.4635 18.1193 26.4295C18.0868 26.3096 18.0868 26.3096 18.0673 26.1702C18.1188 26.0932 18.1188 26.0932 18.1713 26.0147C18.4279 25.9914 18.6452 26.0324 18.8919 26.1003C18.9254 26.1094 18.959 26.1185 18.9936 26.1279C19.0659 26.1476 19.1381 26.1675 19.2103 26.1875C19.3252 26.2194 19.4401 26.2506 19.5552 26.2816C19.8821 26.3699 20.2087 26.4593 20.5352 26.5493C20.7355 26.6044 20.936 26.6587 21.1367 26.7127C21.2125 26.7332 21.2882 26.754 21.3639 26.7752C21.9017 26.9255 22.4403 27.0733 22.9749 26.8443C23.3269 26.6442 23.5946 26.3552 23.7165 25.9658C23.8151 25.5034 23.6868 25.1233 23.44 24.728C23.0638 24.3635 22.6108 24.2558 22.1188 24.1272C22.0371 24.1053 21.9555 24.0834 21.8738 24.0613C21.693 24.0127 21.5122 23.9644 21.3312 23.9163C21.0143 23.8319 20.6979 23.7454 20.3816 23.6588C19.8499 23.5134 19.3179 23.3693 18.7856 23.2263C18.4782 23.1436 18.1709 23.0606 17.8638 22.9766C17.5606 22.8937 17.2571 22.8119 16.9534 22.7307C16.8396 22.7001 16.7258 22.6692 16.6122 22.6378C15.396 22.3029 14.5778 22.3007 13.4588 22.9455ZM11.0139 23.5797C10.9848 23.5963 10.9556 23.6129 10.9256 23.63C10.83 23.6846 10.7345 23.7396 10.6391 23.7946C10.5734 23.8322 10.5077 23.8698 10.4421 23.9074C9.8587 24.2419 9.27876 24.5821 8.70073 24.9257C8.77225 25.1143 8.85706 25.2872 8.95603 25.4629C8.98588 25.516 9.01572 25.5691 9.04647 25.6238C9.07834 25.6801 9.11021 25.7363 9.14304 25.7943C9.17601 25.8527 9.20898 25.9111 9.24296 25.9713C9.44225 26.3235 9.64432 26.6737 9.85128 27.0214C10.046 27.3487 10.237 27.6781 10.4277 28.0078C10.4608 28.0652 10.494 28.1225 10.5282 28.1816C10.6302 28.3581 10.7322 28.5346 10.8342 28.7111C11.3346 29.5769 11.8371 30.4414 12.3433 31.3039C12.529 31.2337 12.6999 31.1516 12.8732 31.0549C12.9513 31.0114 12.9513 31.0114 13.0309 30.9671C13.1139 30.9204 13.1139 30.9204 13.1986 30.8728C13.2556 30.841 13.3126 30.8091 13.3713 30.7762C13.9355 30.4591 14.4934 30.1316 15.0492 29.8001C14.8259 29.3352 14.5811 28.89 14.3164 28.4476C14.1381 28.1493 13.9644 27.8485 13.7905 27.5476C13.7574 27.4903 13.7242 27.4329 13.69 27.3738C13.6219 27.256 13.5538 27.1382 13.4858 27.0204C13.3219 26.7369 13.1578 26.4536 12.9937 26.1702C12.9292 26.0587 12.8646 25.9471 12.8 25.8356C12.6826 25.6328 12.5652 25.4301 12.4478 25.2274C11.7422 24.0095 11.7422 24.0095 11.4066 23.4219C11.2487 23.4219 11.1502 23.5017 11.0139 23.5797Z" stroke="#FE549B" stroke-width="0.4" mask="url(#path-2-outside-1_2197_13619)"/>
<path d="M15.4563 9.11914C16.3842 8.03334 17.9624 7.56401 19.3137 8.16211H19.3127C19.3616 8.1835 19.4108 8.20453 19.4612 8.22656L19.4651 8.22852C20.2585 8.61802 20.8002 9.2669 21.092 10.083L21.093 10.0869C21.3837 11.0006 21.2795 11.8888 20.843 12.7344L20.8411 12.7363C20.5893 13.1955 20.2625 13.5377 19.8333 13.8135C19.9148 13.855 19.9978 13.8878 20.0969 13.9219V13.9229C20.5418 14.0764 20.9375 14.2762 21.3381 14.5117C21.4622 14.582 21.5804 14.6372 21.7083 14.6865C21.7236 14.6719 21.7394 14.6575 21.7551 14.6426L21.7561 14.6416C22.7011 13.7661 23.8842 13.2756 25.1829 13.3008H25.1848C26.2812 13.3476 27.2991 13.7377 28.1223 14.4697L28.2542 14.5859L28.2561 14.5879C29.122 15.3974 29.6183 16.5383 29.6799 17.71V17.7129C29.7149 18.9916 29.2808 20.0943 28.4456 21.0566C28.3992 21.1103 28.3989 21.1106 28.3518 21.165L28.3489 21.168C27.5981 21.9736 26.4497 22.4562 25.3635 22.5146H25.3616C23.9993 22.5562 22.8517 22.1684 21.8391 21.2373L21.8372 21.2363C21.5267 20.9357 21.2157 20.6084 21.0129 20.2041L21.0032 20.1836V20.1553C20.9896 20.1553 20.9759 20.1562 20.9622 20.1562C19.8326 20.1597 18.703 20.1615 17.5735 20.1631C17.0273 20.1639 16.4809 20.1652 15.9348 20.167C15.4587 20.1685 14.9822 20.1696 14.5061 20.1699C14.2541 20.1701 14.0021 20.1707 13.7502 20.1719L13.0383 20.1729C12.9514 20.1729 12.8645 20.1732 12.7776 20.1738C12.6587 20.1746 12.5397 20.1743 12.4211 20.1738L12.219 20.1748H12.2073V20.1738C12.1321 20.1648 12.0785 20.159 12.0334 20.1436C11.9849 20.1269 11.9479 20.0998 11.9016 20.0674L11.886 20.0566L11.8752 20.041C11.7436 19.8427 11.7372 19.5584 11.7629 19.2998C11.7892 19.0366 11.8529 18.766 11.8879 18.5869L11.8889 18.5859C12.1101 17.5407 12.5168 16.5928 13.2366 15.7793L13.345 15.6514L13.3459 15.6504C14.0801 14.8021 15.0873 14.1361 16.179 13.8232C15.4589 13.2438 14.9131 12.559 14.7825 11.5947L14.7815 11.5898C14.7 10.6977 14.8795 9.84511 15.4534 9.12207L15.4563 9.11914ZM25.0491 14.0674C23.9618 14.0972 22.9879 14.5221 22.2229 15.2871L22.092 15.4395C21.4625 16.2083 21.1463 17.1245 21.1858 18.1211L21.2043 18.3271C21.3261 19.3418 21.8408 20.1717 22.6018 20.876C23.4441 21.5937 24.4904 21.8022 25.5862 21.7236C26.3514 21.6281 27.1046 21.2265 27.675 20.709L27.678 20.707C27.7096 20.6803 27.7411 20.6535 27.7737 20.626C28.4733 19.9939 28.8378 19.0106 28.9084 18.0801C28.9401 17.1112 28.6082 16.1673 27.967 15.4385L27.7239 15.1865C27.6885 15.1507 27.6528 15.115 27.6165 15.0781C26.9203 14.4195 26.0095 14.0934 25.0491 14.0674ZM20.7561 15.0713C18.7948 13.9528 16.2405 14.1085 14.5286 15.6074L14.5266 15.6094C14.4845 15.6438 14.4421 15.6784 14.3987 15.7139C13.4608 16.5051 12.8559 17.6253 12.6272 18.8262C12.6129 19.0107 12.5988 19.1953 12.5842 19.3838H20.6663C20.6053 19.0805 20.5445 18.7762 20.4817 18.4639L20.4797 18.4482C20.4304 17.4529 20.5287 16.3795 21.1389 15.5156C21.1592 15.4834 21.1789 15.4507 21.1995 15.418C21.1401 15.2828 21.0416 15.2391 20.8625 15.1348C20.8274 15.1142 20.7923 15.0935 20.7561 15.0723V15.0713ZM18.8352 8.80273C18.2588 8.59158 17.4969 8.63553 16.967 8.91406L16.9651 8.91504C16.9204 8.93763 16.8754 8.96012 16.8293 8.9834C16.2308 9.31299 15.8357 9.81105 15.6331 10.4619C15.4616 11.1281 15.5501 11.7771 15.8752 12.3848C16.2362 12.9454 16.7667 13.3716 17.4143 13.5391C18.1494 13.6464 18.8202 13.5739 19.4202 13.1416C19.4549 13.1151 19.4899 13.0888 19.5256 13.0615L19.5286 13.0596C19.5596 13.0375 19.5904 13.0148 19.6223 12.9922C20.083 12.6397 20.3251 12.0832 20.467 11.5117C20.5322 10.7366 20.3436 10.0836 19.844 9.47949L19.6692 9.3125C19.4892 9.15709 19.2915 9.03208 19.0696 8.91406H19.0686C19.0286 8.89257 18.9886 8.87071 18.9475 8.84863L18.8352 8.80273Z" fill="#FE549B" stroke="#FE549B" stroke-width="0.2"/>
<path d="M25.0774 14.7063C25.1463 14.7152 25.204 14.722 25.2542 14.7463C25.2796 14.7588 25.3024 14.7757 25.3245 14.7952L25.3918 14.8606L25.4182 14.8879L25.4202 14.926C25.4278 15.0727 25.4302 15.214 25.427 15.3606L25.426 15.4797C25.4252 15.5436 25.4233 15.6074 25.4221 15.6711C25.4234 15.6711 25.4247 15.6712 25.426 15.6711C25.5862 15.669 25.7466 15.6676 25.9065 15.6663L26.0745 15.6633H26.0754C26.1288 15.663 26.1826 15.6627 26.2375 15.6624L26.386 15.6604H26.3967L26.387 15.761L26.3967 15.6614C26.4565 15.667 26.5049 15.6701 26.5569 15.6917C26.5802 15.7013 26.604 15.7148 26.6311 15.7317L26.7268 15.7952L26.7659 15.8215L26.7698 15.8694C26.7777 15.9595 26.7825 16.0105 26.7825 16.0618C26.7825 16.1132 26.7777 16.1647 26.7698 16.2551L26.7668 16.2903L26.7415 16.3167C26.6788 16.3801 26.6261 16.4253 26.5579 16.4475C26.4958 16.4677 26.4258 16.4644 26.3508 16.4651L26.3518 16.4661C26.3071 16.4668 26.2621 16.4683 26.2161 16.469H26.0696L25.9182 16.4719C25.7583 16.4744 25.5984 16.4761 25.4387 16.4778C25.2294 16.4799 25.0192 16.4824 24.8098 16.4856H24.6633L24.6643 16.4866C24.428 16.4903 24.2403 16.5032 24.0403 16.5891C23.9516 16.7479 23.9484 16.9071 23.9661 17.1165C24.0208 17.2395 24.0601 17.3039 24.1545 17.3713C24.3003 17.4245 24.4297 17.4233 24.6116 17.425H24.6125C24.6881 17.4264 24.7636 17.4276 24.8391 17.429H24.8381C24.9561 17.4305 25.0747 17.4319 25.1926 17.4329L25.7561 17.4426C25.9011 17.4489 26.0092 17.4599 26.0979 17.4807C26.2409 17.5144 26.3361 17.5743 26.4475 17.6643L26.5667 17.7649L26.5735 17.7708L26.5784 17.7776C26.7224 17.9519 26.8302 18.1095 26.8997 18.2844C26.9695 18.4604 26.9987 18.648 26.9954 18.8792V18.8879L26.8958 18.8772L26.9944 18.8879C26.9573 19.2257 26.8291 19.5072 26.5706 19.7366L26.5627 19.7444L26.5618 19.7434C26.4052 19.8534 26.2663 19.9283 26.1155 19.9739C25.9648 20.0194 25.8078 20.0345 25.6184 20.0325L25.4485 20.0305C25.4384 20.0304 25.4295 20.0296 25.4221 20.0295C25.4226 20.055 25.4235 20.0807 25.4241 20.1067V20.1077C25.425 20.1854 25.4261 20.2634 25.427 20.3411L25.4299 20.4602V20.4612C25.4309 20.5673 25.4255 20.6728 25.4202 20.7756L25.4182 20.8137L25.3918 20.8411C25.3449 20.8886 25.3051 20.9305 25.2542 20.9553C25.204 20.9796 25.1462 20.9855 25.0774 20.9944L25.0647 20.9963L25.052 20.9944C24.9795 20.9854 24.9227 20.9794 24.8762 20.9602C24.8505 20.9495 24.8282 20.9355 24.8079 20.9192L24.7375 20.8547L24.7297 20.8401C24.6214 20.6378 24.6346 20.4752 24.6399 20.2815L24.6438 20.0803V20.0793L24.6458 20.0325H24.6448C24.4844 20.0369 24.3241 20.0386 24.1643 20.0413L24.1653 20.0422C24.1097 20.044 24.0536 20.0453 23.9963 20.0471H23.9944C23.9149 20.0481 23.9146 20.0471 23.8333 20.0481L23.8342 20.0491C23.7604 20.0507 23.7601 20.0513 23.6848 20.053H23.675L23.6643 20.051C23.607 20.0403 23.5569 20.0315 23.512 20.0071C23.4678 19.983 23.4313 19.9449 23.3879 19.9006L23.3782 19.8909L23.3713 19.8782C23.344 19.8268 23.3206 19.7836 23.3108 19.7346C23.3013 19.687 23.3054 19.6365 23.3098 19.5735L23.3108 19.5608L23.3147 19.5481C23.3344 19.4898 23.3492 19.4457 23.3752 19.4045C23.4006 19.3646 23.436 19.3288 23.4846 19.2795L23.5081 19.2561L23.5413 19.2512C23.6435 19.2365 23.6481 19.2358 23.7708 19.2346L23.9055 19.2327H23.9065C23.9547 19.2324 24.0033 19.232 24.053 19.2317L24.2034 19.2297C24.3634 19.2273 24.524 19.2255 24.6838 19.2239C24.8931 19.2217 25.1024 19.2183 25.3118 19.2151C25.3835 19.2147 25.3848 19.2155 25.4573 19.2151C25.6944 19.2114 25.8817 19.196 26.0833 19.1096C26.1753 18.9579 26.1618 18.8007 26.1321 18.5842C26.1149 18.5204 26.0947 18.4777 26.0676 18.4426C26.0407 18.4078 26.0045 18.3757 25.9504 18.3362C25.7895 18.2841 25.6576 18.2851 25.4651 18.2834H25.4641C25.3889 18.2822 25.3137 18.2808 25.2385 18.2795C25.1206 18.2777 25.0027 18.2763 24.885 18.2756H24.884C24.4044 18.2722 24.1444 18.2709 23.9641 18.2249C23.7697 18.1752 23.6644 18.0732 23.4934 17.9104L23.4885 17.9055V17.9045C23.3399 17.743 23.245 17.582 23.1897 17.4045C23.1347 17.2282 23.1202 17.041 23.1243 16.8303V16.8206H23.1252C23.1635 16.496 23.2875 16.2192 23.5178 15.9836L23.5266 15.9739L23.5891 16.054L23.5276 15.9749C23.8779 15.7001 24.2511 15.6643 24.6448 15.6721C24.6442 15.6557 24.6444 15.639 24.6438 15.6223V15.6213C24.6424 15.5551 24.6413 15.4884 24.6399 15.4202L24.634 15.2209V15.2092H24.635C24.6456 15.0826 24.6641 14.9619 24.7288 14.8704C24.7989 14.7714 24.9082 14.7241 25.052 14.7063L25.0647 14.7053L25.0774 14.7063Z" fill="#FE549B" stroke="#FE549B" stroke-width="0.2"/>
</svg>
