<svg width="40" height="40" viewBox="0 0 40 40" fill="none" xmlns="http://www.w3.org/2000/svg">
<rect width="40" height="40" rx="20" fill="#FF5A29" fill-opacity="0.15"/>
<path d="M19.9897 18.1999C20.0319 18.2027 20.0741 18.2056 20.1176 18.2085C20.3276 18.26 20.4908 18.3507 20.6199 18.5291C20.6796 18.6327 20.7328 18.738 20.7851 18.8455C20.8166 18.9078 20.8166 18.9078 20.8487 18.9713C20.8967 19.0667 20.9444 19.1623 20.9918 19.2581C21.0841 19.4445 21.1777 19.6303 21.2715 19.8161C21.5872 20.4429 21.8997 21.0714 22.2028 21.7045C22.2241 21.7488 22.2454 21.793 22.2674 21.8386C22.2863 21.8785 22.3052 21.9184 22.3247 21.9595C22.341 21.9937 22.3572 22.0279 22.374 22.0632C22.4081 22.1478 22.4081 22.1478 22.4081 22.2506C22.4476 22.2532 22.4871 22.2557 22.5278 22.2583C22.9617 22.2887 23.3897 22.3405 23.8201 22.4028C23.8894 22.4128 23.9587 22.4227 24.028 22.4326C24.1719 22.4533 24.3157 22.4741 24.4596 22.4951C24.6427 22.5217 24.8258 22.5478 25.009 22.5737C25.1517 22.5939 25.2942 22.6146 25.4367 22.6353C25.5367 22.6498 25.6367 22.6639 25.7366 22.6779C26.7042 22.8208 26.7042 22.8208 26.9754 23.1244C27.0966 23.3519 27.1505 23.5649 27.1101 23.8215C26.9598 24.3103 26.4471 24.6895 26.0929 25.0429C26.0038 25.1319 25.9149 25.2212 25.8261 25.3105C25.564 25.5731 25.3016 25.832 25.0198 26.0735C24.8275 26.2386 24.6417 26.4099 24.4576 26.5841C24.4174 26.6198 24.3772 26.6556 24.3358 26.6924C24.2982 26.7286 24.2605 26.7647 24.2217 26.8019C24.1875 26.8336 24.1533 26.8652 24.118 26.8978C24.0075 27.1144 24.0627 27.3105 24.1016 27.5446C24.1106 27.6003 24.1195 27.656 24.1288 27.7134C24.1554 27.8728 24.1831 28.0318 24.2116 28.1908C24.2305 28.297 24.2492 28.4032 24.2678 28.5095C24.3207 28.8111 24.3739 29.1127 24.4277 29.4142C24.4608 29.5997 24.4934 29.7852 24.5257 29.9709C24.538 30.0409 24.5505 30.1108 24.5631 30.1808C24.7672 31.3104 24.7672 31.3104 24.4907 31.7255C24.3133 31.9114 24.135 31.9896 23.8803 32.0001C23.4825 31.9876 23.1813 31.8113 22.8425 31.6229C22.6495 31.5172 22.4535 31.4175 22.2578 31.3169C21.7234 31.0416 21.1938 30.7579 20.6673 30.4676C20.5828 30.421 20.4982 30.3747 20.4134 30.3286C20.3206 30.2778 20.2291 30.2247 20.1378 30.1711C19.9248 30.086 19.7609 30.1349 19.5534 30.2232C19.5084 30.247 19.4635 30.2708 19.4172 30.2954C19.3661 30.3222 19.315 30.349 19.2623 30.3766C19.2081 30.4057 19.1539 30.4347 19.098 30.4646C19.0132 30.5095 19.0132 30.5095 18.9266 30.5552C18.462 30.8014 18.0006 31.0533 17.5399 31.3064C17.2872 31.4451 17.0335 31.582 16.7791 31.7174C16.7431 31.7367 16.7071 31.756 16.67 31.7758C16.3176 31.9627 16.0313 32.0101 15.6341 31.9648C15.4245 31.8798 15.308 31.7528 15.1754 31.5729C15.0267 31.0999 15.1499 30.5919 15.2365 30.1158C15.2578 29.9983 15.2786 29.8807 15.2992 29.7631C15.3429 29.5139 15.3874 29.2649 15.432 29.0158C15.4839 28.7259 15.5355 28.436 15.5863 28.1459C15.6067 28.0303 15.6276 27.9148 15.6486 27.7994C15.6611 27.7285 15.6736 27.6576 15.686 27.5867C15.697 27.525 15.7081 27.4634 15.7195 27.3999C15.7362 27.2408 15.7322 27.1313 15.6854 26.9792C15.5821 26.8466 15.5821 26.8466 15.4478 26.7194C15.4238 26.6955 15.3998 26.6717 15.3751 26.647C15.2983 26.571 15.2208 26.4956 15.1433 26.4203C15.0926 26.37 15.0419 26.3198 14.9913 26.2695C14.7849 26.0654 14.5774 25.8635 14.3571 25.6742C14.0778 25.4335 13.8155 25.175 13.5532 24.916C13.4927 24.8565 13.4318 24.7973 13.3707 24.7384C12.699 24.0917 12.699 24.0917 12.6576 23.6898C12.6579 23.4595 12.7314 23.2746 12.85 23.0794C13.162 22.7843 13.5439 22.7612 13.9518 22.7034C14.0511 22.6887 14.0511 22.6887 14.1524 22.6737C14.3282 22.6476 14.5041 22.6222 14.68 22.597C14.8567 22.5715 15.0333 22.5454 15.2099 22.5194C15.5305 22.4722 15.8512 22.4254 16.1721 22.3795C16.2971 22.3614 16.4221 22.3429 16.5471 22.324C16.6102 22.3146 16.6733 22.3051 16.7383 22.2954C16.7948 22.2868 16.8513 22.2783 16.9095 22.2694C17.0676 22.251 17.2199 22.2473 17.3789 22.2506C17.3902 22.2116 17.4014 22.1725 17.413 22.1322C17.5082 21.8682 17.6321 21.621 17.756 21.3695C17.7832 21.3138 17.8104 21.2581 17.8385 21.2007C17.8962 21.0828 17.9541 20.9649 18.012 20.8471C18.0992 20.6697 18.1861 20.4921 18.2728 20.3145C18.4104 20.0335 18.5491 19.753 18.6888 19.473C18.7373 19.3756 18.7856 19.2781 18.8336 19.1804C18.8941 19.0574 18.9557 18.9351 19.0177 18.8128C19.043 18.7607 19.043 18.7607 19.0689 18.7074C19.2018 18.45 19.3685 18.3027 19.6405 18.2025C19.7602 18.1877 19.8695 18.1899 19.9897 18.1999ZM19.8422 21.0171C19.8274 21.0474 19.8127 21.0778 19.7975 21.109C19.6435 21.4255 19.4885 21.7414 19.3329 22.057C19.275 22.1748 19.2173 22.2927 19.16 22.4107C19.0773 22.5806 18.9938 22.7501 18.91 22.9194C18.8847 22.972 18.8593 23.0247 18.8332 23.0789C18.6582 23.4296 18.5191 23.6586 18.1403 23.8031C17.8808 23.857 17.6207 23.8965 17.3582 23.9327C17.3029 23.9405 17.2476 23.9484 17.1906 23.9565C17.015 23.9813 16.8393 24.0058 16.6636 24.0303C16.5441 24.0471 16.4246 24.064 16.3051 24.0809C16.013 24.1221 15.7209 24.163 15.4288 24.2037C15.4111 24.3579 15.4111 24.3579 15.5055 24.4389C15.5402 24.4672 15.5749 24.4955 15.6107 24.5246C15.8216 24.7017 16.0179 24.8883 16.2126 25.0829C16.2626 25.1328 16.2626 25.1328 16.3136 25.1836C16.3833 25.2531 16.4529 25.3227 16.5224 25.3924C16.6289 25.4989 16.7358 25.605 16.8426 25.711C16.9106 25.779 16.9786 25.8469 17.0465 25.9149C17.0784 25.9465 17.1102 25.978 17.1431 26.0105C17.1725 26.0402 17.202 26.0699 17.2324 26.1005C17.2583 26.1263 17.2842 26.1522 17.3109 26.1788C17.5261 26.4346 17.5084 26.7038 17.4909 27.0247C17.4566 27.4229 17.374 27.8169 17.3019 28.2095C17.2761 28.3522 17.2504 28.4948 17.225 28.6375C17.2093 28.7256 17.1934 28.8136 17.1771 28.9016C17.1377 29.1206 17.1135 29.3254 17.1223 29.5491C17.3521 29.463 17.5666 29.3537 17.7842 29.2411C17.8229 29.2212 17.8615 29.2013 17.9013 29.1808C17.9829 29.1388 18.0644 29.0967 18.1459 29.0546C18.2697 28.9906 18.3936 28.9268 18.5175 28.8631C18.597 28.822 18.6765 28.781 18.7561 28.74C18.811 28.7117 18.811 28.7117 18.8671 28.6829C19.0379 28.5944 19.2065 28.5039 19.3727 28.4071C19.6027 28.2768 19.7864 28.2529 20.0474 28.2642C20.4207 28.3726 20.7599 28.5717 21.0963 28.7621C21.609 29.0477 22.1312 29.3048 22.6647 29.5491C22.6452 29.1957 22.6036 28.8501 22.541 28.5021C22.5308 28.4454 22.5308 28.4454 22.5204 28.3875C22.4921 28.2311 22.4634 28.0748 22.4342 27.9185C22.2001 26.6611 22.2001 26.6611 22.3847 26.3179C22.545 26.113 22.7221 25.9325 22.907 25.7499C22.9451 25.7119 22.9832 25.6739 23.0224 25.6348C23.1435 25.5141 23.2649 25.3938 23.3863 25.2735C23.4682 25.192 23.55 25.1105 23.6318 25.029C23.8117 24.8498 23.9918 24.6709 24.1722 24.4921C24.2515 24.4134 24.3306 24.3343 24.4095 24.2551C24.325 24.1705 24.2192 24.1793 24.1029 24.1634C24.0484 24.1559 23.9939 24.1483 23.9377 24.1405C23.8784 24.1324 23.819 24.1243 23.7578 24.116C23.6331 24.0984 23.5083 24.0808 23.3836 24.0631C23.1863 24.0353 22.9889 24.0078 22.7914 23.9809C22.6013 23.9549 22.4114 23.9279 22.2215 23.9008C22.1626 23.893 22.1037 23.8852 22.0431 23.8772C21.7062 23.8282 21.4314 23.7874 21.2131 23.5002C21.0393 23.235 20.9018 22.9474 20.7617 22.6634C20.7381 22.6161 20.7146 22.5688 20.6903 22.52C20.6159 22.3703 20.5417 22.2205 20.4676 22.0707C20.4169 21.9686 20.3661 21.8665 20.3154 21.7644C20.1916 21.5154 20.0681 21.2663 19.9448 21.0171C19.9109 21.0171 19.8771 21.0171 19.8422 21.0171Z" fill="#FF5A29"/>
<path d="M19.8785 8.00439C19.9324 8.00294 19.9863 8.00149 20.0418 8C20.4511 8.05866 20.7409 8.41567 21.0203 8.68177C21.067 8.72596 21.1136 8.77015 21.1617 8.81567C21.2599 8.90895 21.358 9.00236 21.456 9.09591C21.6057 9.23863 21.7562 9.38051 21.9068 9.52238C22.0024 9.61329 22.0979 9.70425 22.1933 9.79526C22.2607 9.85853 22.2607 9.85853 22.3295 9.92308C22.6155 10.1983 22.7968 10.4085 22.8493 10.8025C22.8143 11.0747 22.7322 11.2833 22.5214 11.4753C22.2851 11.6369 22.0698 11.6883 21.7804 11.6723C21.4465 11.6102 21.2274 11.404 20.9951 11.179C20.9572 11.1424 20.9194 11.1059 20.8804 11.0683C20.8377 11.0267 20.8377 11.0267 20.7941 10.9843C20.7939 11.05 20.7937 11.1158 20.7935 11.1835C20.7916 11.8031 20.7885 12.4228 20.7843 13.0424C20.7822 13.361 20.7805 13.6796 20.7796 13.9981C20.7788 14.3056 20.777 14.6131 20.7744 14.9206C20.7736 15.0379 20.7732 15.1551 20.7732 15.2724C20.7731 15.4367 20.7716 15.6011 20.7699 15.7654C20.7703 15.838 20.7703 15.838 20.7707 15.912C20.7656 16.2183 20.7153 16.4004 20.5268 16.6507C20.2717 16.8407 20.0704 16.8885 19.7477 16.8744C19.4774 16.8338 19.3081 16.7221 19.128 16.5229C18.9953 16.282 18.999 16.0858 19.0005 15.8176C18.9999 15.7653 18.9994 15.7129 18.9988 15.659C18.9972 15.4867 18.9972 15.3143 18.9971 15.142C18.9963 15.0222 18.9954 14.9025 18.9944 14.7828C18.9921 14.4681 18.991 14.1534 18.9902 13.8386C18.9892 13.5173 18.9869 13.196 18.9848 12.8747C18.9807 12.2446 18.9781 11.6145 18.9762 10.9843C18.9413 11.0194 18.9065 11.0545 18.8705 11.0906C18.8238 11.1366 18.7771 11.1826 18.7289 11.23C18.6601 11.2984 18.6601 11.2984 18.5898 11.3682C18.3182 11.6001 18.079 11.681 17.7214 11.6687C17.4492 11.627 17.2484 11.5089 17.0843 11.2974C16.954 11.0737 16.9059 10.8844 16.9444 10.627C17.1034 10.25 17.3503 10.007 17.6512 9.72448C17.699 9.67884 17.7469 9.6332 17.7962 9.58618C17.897 9.49027 17.9979 9.39457 18.0993 9.29919C18.2289 9.17716 18.3578 9.05446 18.4865 8.93152C18.6099 8.81376 18.7337 8.69642 18.8576 8.57908C18.9038 8.53511 18.9499 8.49113 18.9975 8.44583C19.0407 8.40525 19.0839 8.36467 19.1284 8.32287C19.1662 8.28714 19.204 8.25142 19.243 8.21461C19.4485 8.04449 19.6084 8.00767 19.8785 8.00439Z" fill="#FF5A29"/>
<path d="M24.8417 13.592C24.8898 13.5911 24.9379 13.5901 24.9874 13.5891C25.394 13.6568 25.6882 14.0133 25.9665 14.2732C26.0386 14.3402 26.0386 14.3402 26.1122 14.4085C26.2134 14.5026 26.3145 14.5969 26.4155 14.6913C26.5445 14.8121 26.6742 14.9322 26.8041 15.0522C26.9284 15.1672 27.0521 15.2829 27.1759 15.3984C27.2224 15.4414 27.269 15.4843 27.3169 15.5285C27.3813 15.5891 27.3813 15.5891 27.447 15.6509C27.4849 15.6862 27.5227 15.7215 27.5617 15.7578C27.7505 15.9714 27.7872 16.1817 27.78 16.4506C27.743 16.6992 27.6075 16.8637 27.4113 17.0333C27.1506 17.1955 26.8874 17.1945 26.5838 17.1646C26.3279 17.0658 26.1763 16.9398 25.9829 16.7567C25.9447 16.7207 25.9065 16.6847 25.8672 16.6476C25.8383 16.6202 25.8095 16.5928 25.7798 16.5645C25.7793 16.6421 25.7793 16.6421 25.7788 16.7213C25.7757 17.2098 25.7718 17.6984 25.7671 18.1869C25.7647 18.4381 25.7626 18.6892 25.7612 18.9404C25.7598 19.1829 25.7576 19.4254 25.7549 19.668C25.754 19.7603 25.7534 19.8527 25.7531 19.945C25.7526 20.0748 25.7511 20.2045 25.7493 20.3343C25.7494 20.391 25.7494 20.391 25.7496 20.4489C25.7443 20.7316 25.6995 21.0268 25.4894 21.2438C25.2307 21.4525 25.0144 21.4836 24.6847 21.4791C24.4594 21.4568 24.3517 21.3964 24.1717 21.2654C23.9689 20.9943 23.9258 20.798 23.928 20.4716C23.9274 20.4286 23.9269 20.3857 23.9263 20.3414C23.9247 20.2004 23.9247 20.0595 23.9246 19.9185C23.9238 19.8203 23.9229 19.7221 23.9219 19.624C23.9196 19.3664 23.9185 19.1088 23.9177 18.8512C23.9166 18.5881 23.9144 18.3249 23.9122 18.0618C23.9082 17.546 23.9055 17.0303 23.9037 16.5145C23.8445 16.5723 23.8445 16.5723 23.7841 16.6313C23.7313 16.682 23.6784 16.7326 23.6256 16.7833C23.5997 16.8087 23.5738 16.8341 23.5472 16.8603C23.3158 17.0805 23.1175 17.1781 22.7881 17.1865C22.4943 17.1808 22.3012 17.0927 22.0812 16.9146C21.8998 16.7181 21.8476 16.4701 21.8668 16.2144C21.9774 15.8259 22.2096 15.6094 22.5127 15.332C22.5605 15.2874 22.6083 15.2429 22.6575 15.1969C22.7584 15.1031 22.8594 15.0095 22.961 14.9164C23.0906 14.7975 23.2192 14.6777 23.3476 14.5576C23.4709 14.4423 23.5948 14.3277 23.7188 14.2131C23.7647 14.1702 23.8106 14.1274 23.8579 14.0833C24.1554 13.8112 24.4047 13.5926 24.8417 13.592Z" fill="#FF5A29"/>
<path d="M14.7617 15.2372C14.8074 15.2358 14.8531 15.2344 14.9001 15.2329C15.314 15.2964 15.5916 15.6162 15.8745 15.8939C15.9185 15.9367 15.9625 15.9795 16.0079 16.0237C16.1005 16.1141 16.1929 16.2046 16.2852 16.2954C16.4261 16.4338 16.568 16.5711 16.7101 16.7083C16.8001 16.7965 16.8902 16.8848 16.9801 16.9731C17.0225 17.0138 17.0648 17.0546 17.1084 17.0966C17.3731 17.3596 17.5504 17.5808 17.589 17.9603C17.5549 18.2364 17.4752 18.431 17.2731 18.6299C17.0278 18.8036 16.7581 18.8236 16.4644 18.7788C16.2254 18.679 16.0689 18.5557 15.8895 18.3725C15.8453 18.3278 15.8012 18.2831 15.7556 18.237C15.7227 18.203 15.6897 18.1689 15.6557 18.1337C15.6556 18.1678 15.6554 18.2018 15.6552 18.2369C15.6531 18.5919 15.6496 18.9469 15.6453 19.3018C15.6437 19.4343 15.6428 19.5666 15.642 19.6991C15.641 19.8896 15.6386 20.0801 15.636 20.2707C15.6359 20.3297 15.6359 20.3887 15.6358 20.4494C15.6299 20.7789 15.6082 20.9942 15.403 21.2598C15.1618 21.4445 14.9716 21.4909 14.6666 21.4773C14.3988 21.4358 14.2394 21.3211 14.0699 21.1109C13.9551 20.9028 13.9309 20.7394 13.9269 20.5042C13.9254 20.4267 13.9254 20.4267 13.9238 20.3477C13.923 20.2923 13.9221 20.2369 13.9213 20.1798C13.9202 20.1228 13.9192 20.0658 13.9181 20.0071C13.9148 19.8251 13.9118 19.6431 13.9088 19.4611C13.9066 19.3377 13.9044 19.2143 13.9022 19.0909C13.8968 18.7884 13.8916 18.4859 13.8867 18.1834C13.8556 18.2144 13.8245 18.2455 13.7924 18.2774C13.7515 18.318 13.7107 18.3585 13.6685 18.4002C13.628 18.4405 13.5875 18.4808 13.5458 18.5223C13.3342 18.7221 13.1644 18.786 12.8758 18.7974C12.6201 18.7884 12.4339 18.7413 12.2472 18.559C12.0774 18.3687 12.0092 18.2191 12.0039 17.9694C12.002 17.9144 12.002 17.9144 12 17.8583C12.0363 17.5922 12.1885 17.4005 12.3771 17.2155C12.4189 17.1741 12.4608 17.1328 12.5039 17.0901C12.5489 17.0464 12.5939 17.0027 12.6403 16.9576C12.6867 16.912 12.7331 16.8664 12.781 16.8194C12.8789 16.7233 12.9771 16.6274 13.0755 16.5317C13.2014 16.4092 13.3268 16.2861 13.452 16.1629C13.5718 16.0451 13.692 15.9276 13.8123 15.8101C13.8572 15.766 13.9021 15.7218 13.9484 15.6764C13.9904 15.6356 14.0324 15.5949 14.0756 15.5529C14.1124 15.517 14.1493 15.4811 14.1872 15.4441C14.3725 15.2852 14.5173 15.2406 14.7617 15.2372Z" fill="#FF5A29"/>
</svg>
