<svg width="40" height="41" viewBox="0 0 40 41" fill="none" xmlns="http://www.w3.org/2000/svg">
<rect y="0.109985" width="40" height="40" rx="20" fill="#FF9A13" fill-opacity="0.15"/>
<path d="M20 22.61C19.2318 22.61 18.763 22.4863 18.5938 22.2389C18.4245 21.9915 18.3398 21.8352 18.3398 21.7701H16.6602C16.6602 22.1608 16.8327 22.6263 17.1777 23.1666C17.5228 23.707 18.1836 24.0553 19.1602 24.2115V25.11H20.8398V24.2115C21.6732 24.0683 22.2982 23.7623 22.7148 23.2936C23.1315 22.8248 23.3398 22.317 23.3398 21.7701C23.3398 21.3014 23.1445 20.7675 22.7539 20.1686C22.3633 19.5696 21.4453 19.2701 20 19.2701C19.1667 19.2701 18.6816 19.1725 18.5449 18.9772C18.4082 18.7819 18.3398 18.6061 18.3398 18.4498C18.3398 18.2936 18.4798 18.1145 18.7598 17.9127C19.0397 17.7109 19.4531 17.61 20 17.61C20.5469 17.61 20.8757 17.7109 20.9863 17.9127C21.097 18.1145 21.1589 18.2936 21.1719 18.4498H22.832C22.819 17.8509 22.6237 17.33 22.2461 16.8873C21.8685 16.4446 21.3997 16.1647 20.8398 16.0475V15.11H19.1602V16.028C18.3268 16.1582 17.7018 16.4576 17.2852 16.9264C16.8685 17.3951 16.6602 17.903 16.6602 18.4498C16.6602 18.9186 16.8555 19.4524 17.2461 20.0514C17.6367 20.6504 18.5547 20.9498 20 20.9498C20.8333 20.9498 21.3184 21.054 21.4551 21.2623C21.5918 21.4707 21.6602 21.6399 21.6602 21.7701C21.6602 21.9134 21.5267 22.0892 21.2598 22.2975C20.9928 22.5058 20.5729 22.61 20 22.61ZM14.1602 11.7701H11.6602V13.4498H13.3398V27.61C13.3398 27.8444 13.4212 28.0429 13.584 28.2057C13.7467 28.3684 13.9388 28.4498 14.1602 28.4498H25.8398C26.0612 28.4498 26.2533 28.3684 26.416 28.2057C26.5788 28.0429 26.6602 27.8444 26.6602 27.61V13.4498H28.3398V11.7701H14.1602ZM25 26.7701H15V13.4498H25V26.7701Z" fill="#FF9A13"/>
</svg>
