<svg width="40" height="41" viewBox="0 0 40 41" fill="none" xmlns="http://www.w3.org/2000/svg">
<rect y="0.329956" width="40" height="40" rx="20" fill="#FF5A29" fill-opacity="0.15"/>
<path d="M24.9219 13.2987C24.8438 13.1555 24.7396 13.0415 24.6094 12.9569C24.4792 12.8723 24.3294 12.83 24.1602 12.83H15.8398C15.6836 12.83 15.5371 12.8723 15.4004 12.9569C15.2637 13.0415 15.1562 13.1555 15.0781 13.2987L11.7578 19.9589C11.7318 20.0109 11.709 20.0695 11.6895 20.1346C11.6699 20.1997 11.6602 20.2649 11.6602 20.33C11.6602 20.3951 11.6699 20.4602 11.6895 20.5253C11.709 20.5904 11.7318 20.649 11.7578 20.701L15.0781 27.3612C15.1562 27.5044 15.2637 27.6184 15.4004 27.703C15.5371 27.7876 15.6836 27.83 15.8398 27.83H24.1602C24.3164 27.83 24.4629 27.7876 24.5996 27.703C24.7363 27.6184 24.8438 27.5044 24.9219 27.3612L28.2422 20.701C28.2682 20.649 28.291 20.5904 28.3105 20.5253C28.3301 20.4602 28.3398 20.3951 28.3398 20.33C28.3398 20.2649 28.3301 20.1997 28.3105 20.1346C28.291 20.0695 28.2682 20.0109 28.2422 19.9589L24.9219 13.2987ZM26.1523 19.4901H19.6875L17.1875 14.4901H23.6523L26.1523 19.4901ZM13.4375 20.33L15.8398 15.5253L18.2422 20.33L15.8398 25.1346L13.4375 20.33ZM23.6523 26.1698H17.1875L19.6875 21.1698H26.1523L23.6523 26.1698Z" fill="#FF5A29"/>
</svg>
