<svg width="40" height="41" viewBox="0 0 40 41" fill="none" xmlns="http://www.w3.org/2000/svg">
<rect y="0.219971" width="40" height="40" rx="20" fill="#0CC763" fill-opacity="0.15"/>
<path d="M26.6602 12.72H14.1602C13.4701 12.72 12.8809 12.9641 12.3926 13.4524C11.9043 13.9407 11.6602 14.5299 11.6602 15.22V25.22C11.6602 25.9101 11.9043 26.4993 12.3926 26.9875C12.8809 27.4758 13.4701 27.72 14.1602 27.72H26.6602C27.1289 27.72 27.526 27.5572 27.8516 27.2317C28.1771 26.9062 28.3398 26.5155 28.3398 26.0598V14.3801C28.3398 13.9244 28.1771 13.5338 27.8516 13.2083C27.526 12.8827 27.1289 12.72 26.6602 12.72ZM14.1602 26.0598C13.9388 26.0598 13.7467 25.9784 13.584 25.8157C13.4212 25.6529 13.3398 25.4543 13.3398 25.22V15.22C13.3398 14.9856 13.4212 14.787 13.584 14.6243C13.7467 14.4615 13.9388 14.3801 14.1602 14.3801H26.6602V16.8801H21.6602C21.2044 16.8801 20.8138 17.0429 20.4883 17.3684C20.1628 17.6939 20 18.0911 20 18.5598V21.8801C20 22.3489 20.1628 22.746 20.4883 23.0715C20.8138 23.3971 21.2044 23.5598 21.6602 23.5598H26.6602V26.0598H14.1602ZM26.6602 18.5598V21.8801H21.6602V18.5598H26.6602Z" fill="#0CC763"/>
</svg>
