<svg width="40" height="41" viewBox="0 0 40 41" fill="none" xmlns="http://www.w3.org/2000/svg">
<rect y="0.889893" width="40" height="40" rx="20" fill="#FF383C" fill-opacity="0.15"/>
<path d="M27.5 14.2297H12.5C12.2656 14.2297 12.0671 14.3111 11.9043 14.4739C11.7415 14.6366 11.6602 14.8287 11.6602 15.05V26.7297C11.6602 26.9511 11.7415 27.1431 11.9043 27.3059C12.0671 27.4687 12.2656 27.55 12.5 27.55H27.5C27.7344 27.55 27.9329 27.4687 28.0957 27.3059C28.2585 27.1431 28.3398 26.9511 28.3398 26.7297V15.05C28.3398 14.8287 28.2585 14.6366 28.0957 14.4739C27.9329 14.3111 27.7344 14.2297 27.5 14.2297ZM26.6602 23.3899C25.9701 23.3899 25.3809 23.634 24.8926 24.1223C24.4043 24.6106 24.1602 25.1998 24.1602 25.8899H15.8398C15.8398 25.1998 15.5957 24.6106 15.1074 24.1223C14.6191 23.634 14.0299 23.3899 13.3398 23.3899V18.3899C14.0299 18.3899 14.6191 18.1458 15.1074 17.6575C15.5957 17.1692 15.8398 16.58 15.8398 15.8899H24.1602C24.1602 16.58 24.4043 17.1692 24.8926 17.6575C25.3809 18.1458 25.9701 18.3899 26.6602 18.3899V23.3899ZM20 17.55C19.0755 17.55 18.2878 17.8756 17.6367 18.5266C16.9857 19.1777 16.6602 19.9654 16.6602 20.8899C16.6602 21.8144 16.9857 22.6021 17.6367 23.2532C18.2878 23.9042 19.0755 24.2297 20 24.2297C20.9245 24.2297 21.7122 23.9042 22.3633 23.2532C23.0143 22.6021 23.3398 21.8144 23.3398 20.8899C23.3398 19.9654 23.0143 19.1777 22.3633 18.5266C21.7122 17.8756 20.9245 17.55 20 17.55ZM20 22.55C19.5443 22.55 19.1536 22.3873 18.8281 22.0618C18.5026 21.7362 18.3398 21.3456 18.3398 20.8899C18.3398 20.4342 18.5026 20.0435 18.8281 19.718C19.1536 19.3925 19.5443 19.2297 20 19.2297C20.4557 19.2297 20.8464 19.3925 21.1719 19.718C21.4974 20.0435 21.6602 20.4342 21.6602 20.8899C21.6602 21.3456 21.4974 21.7362 21.1719 22.0618C20.8464 22.3873 20.4557 22.55 20 22.55Z" fill="#FF5A29"/>
</svg>
