<svg width="26" height="27" viewBox="0 0 26 27" fill="none" xmlns="http://www.w3.org/2000/svg">
<path d="M1.59377 18.0515C1.65252 18.0514 1.71127 18.0514 1.7718 18.0513C1.83579 18.0515 1.89979 18.0517 1.96572 18.0519C2.03414 18.0519 2.10256 18.0519 2.17098 18.0518C2.35634 18.0518 2.5417 18.0521 2.72707 18.0525C2.92092 18.0528 3.11478 18.0529 3.30864 18.0529C3.67557 18.0531 4.0425 18.0535 4.40942 18.0541C4.82723 18.0546 5.24504 18.0549 5.66284 18.0552C6.52215 18.0558 7.38145 18.0567 8.24075 18.0579C8.26382 18.1081 8.28688 18.1583 8.31065 18.2101C8.34189 18.277 8.37315 18.344 8.40442 18.4109C8.4195 18.4439 8.43459 18.4769 8.45013 18.5109C8.78958 19.2333 9.44974 19.7384 10.167 20.0041C10.7311 20.1688 11.3392 20.1338 11.9194 20.1341C12.0054 20.1343 12.0914 20.1345 12.1774 20.1346C12.3569 20.135 12.5364 20.1351 12.7159 20.135C12.9439 20.135 13.1718 20.1357 13.3998 20.1367C13.5772 20.1372 13.7546 20.1373 13.9321 20.1373C14.016 20.1374 14.0999 20.1376 14.1839 20.138C15.148 20.1423 16.0175 20.0845 16.8029 19.4361C16.8421 19.4051 16.8813 19.374 16.9217 19.3421C17.3201 19.0037 17.5807 18.5551 17.7656 18.0579C18.6627 18.0542 19.5598 18.0514 20.4569 18.0496C20.8735 18.0488 21.29 18.0477 21.7066 18.0459C22.0698 18.0443 22.433 18.0433 22.7963 18.0429C22.9885 18.0427 23.1807 18.0422 23.3729 18.0411C23.554 18.04 23.7352 18.0396 23.9164 18.0399C24.014 18.0398 24.1117 18.039 24.2093 18.0381C24.7335 18.04 25.1723 18.1258 25.5585 18.5238C25.9211 18.934 25.9959 19.2654 25.9936 19.8125C25.9941 19.8997 25.9941 19.8997 25.9946 19.9887C25.9955 20.1803 25.9954 20.3719 25.9951 20.5636C25.9953 20.6972 25.9956 20.8309 25.9959 20.9646C25.9963 21.2447 25.9962 21.5247 25.9957 21.8048C25.9951 22.1273 25.9958 22.4499 25.9972 22.7725C25.9984 23.0841 25.9986 23.3956 25.9982 23.7072C25.9982 23.8392 25.9985 23.9712 25.9992 24.1032C25.9999 24.2881 25.9994 24.473 25.9985 24.658C25.999 24.712 25.9995 24.766 26 24.8217C25.9959 25.237 25.909 25.5916 25.678 25.9342C25.2223 26.392 24.7762 26.4949 24.1515 26.493C24.0926 26.4932 24.0926 26.4932 24.0325 26.4933C23.9011 26.4935 23.7696 26.4934 23.6382 26.4933C23.543 26.4934 23.4477 26.4935 23.3525 26.4937C23.0909 26.494 22.8292 26.494 22.5676 26.4939C22.2854 26.4939 22.0032 26.4942 21.721 26.4944C21.1682 26.4949 20.6153 26.495 20.0625 26.4951C19.6132 26.4951 19.1638 26.4952 18.7145 26.4954C17.648 26.4958 16.5815 26.4961 15.515 26.496C15.4638 26.496 15.4638 26.496 15.4116 26.496C15.2388 26.496 15.066 26.496 14.8931 26.496C14.8588 26.496 14.8245 26.496 14.7891 26.496C14.7197 26.496 14.6503 26.496 14.5809 26.496C13.501 26.496 12.421 26.4964 11.3411 26.4971C10.1275 26.4979 8.91398 26.4984 7.70043 26.4983C7.05797 26.4983 6.41551 26.4985 5.77305 26.499C5.22609 26.4995 4.67913 26.4996 4.13217 26.4993C3.85311 26.4991 3.57405 26.4991 3.295 26.4996C3.03945 26.5 2.78391 26.4999 2.52837 26.4994C2.43601 26.4994 2.34365 26.4994 2.25129 26.4997C0.935836 26.5037 0.935836 26.5037 0.441288 26.0184C0.0742766 25.6095 0.0104408 25.2162 0.0119315 24.6726C0.0115024 24.6144 0.0110733 24.5563 0.0106312 24.4963C0.00945027 24.305 0.00939537 24.1137 0.00945773 23.9223C0.00909775 23.7887 0.00870766 23.6551 0.00828885 23.5215C0.00760838 23.2418 0.00751866 22.962 0.007825 22.6823C0.00816126 22.3601 0.0070032 22.0379 0.0051239 21.7158C0.00337459 21.4044 0.00304552 21.0931 0.00325385 20.7818C0.0031683 20.6499 0.00268109 20.5181 0.00177729 20.3863C0.000650253 20.2016 0.00114613 20.0169 0.00203626 19.8322C0.0013643 19.7783 0.00069233 19.7244 0 19.6688C0.00524356 19.1982 0.151198 18.8368 0.45435 18.4886C0.787808 18.1663 1.14489 18.0511 1.59377 18.0515ZM18.2279 22.6663C18.0445 22.9428 17.9715 23.1786 18.0189 23.5177C18.1169 23.8452 18.3058 24.0702 18.5762 24.2599C18.8501 24.3554 19.1312 24.3517 19.4026 24.2499C19.6585 24.0693 19.839 23.8775 19.9441 23.5707C19.98 23.255 19.9727 22.9883 19.7921 22.7226C19.5555 22.4741 19.3693 22.2942 19.0226 22.282C18.697 22.287 18.4438 22.4106 18.2279 22.6663ZM22.1292 22.7924C21.9786 23.0273 22.0002 23.2997 22.0213 23.5707C22.114 23.88 22.3341 24.0726 22.5786 24.2599C22.8234 24.3452 23.0927 24.3636 23.3404 24.2766C23.6023 24.1315 23.77 23.9252 23.9117 23.6569C23.9959 23.3205 23.9676 23.0663 23.8082 22.7663C23.6552 22.5362 23.4475 22.37 23.1866 22.2985C22.7197 22.2505 22.423 22.4163 22.1292 22.7924Z" fill="#FF5A29"/>
<path d="M13.8889 0.900212C14.0969 1.10086 14.2965 1.31032 14.4968 1.51922C14.5644 1.58918 14.632 1.65911 14.6997 1.72901C14.8825 1.91798 15.0648 2.10743 15.247 2.29699C15.4382 2.49575 15.6298 2.6941 15.8213 2.89251C16.1427 3.2256 16.4638 3.559 16.7847 3.8926C17.1553 4.27786 17.5263 4.66264 17.8976 5.04717C18.2555 5.41778 18.613 5.78868 18.9704 6.15973C19.1222 6.31735 19.2742 6.47487 19.4262 6.63231C19.6052 6.81776 19.7839 7.00349 19.9625 7.18941C20.0279 7.25746 20.0935 7.32542 20.1591 7.39329C20.2489 7.48619 20.3384 7.57942 20.4278 7.67273C20.4536 7.69927 20.4794 7.72582 20.506 7.75317C20.784 8.04487 21.0253 8.33243 21.0376 8.75907C21.033 9.08392 20.9468 9.30811 20.7404 9.55181C20.4282 9.85838 20.0604 9.89649 19.6434 9.89211C19.6042 9.89212 19.565 9.89214 19.5247 9.89216C19.3967 9.89208 19.2688 9.89127 19.1408 9.89044C19.0515 9.89024 18.9622 9.89009 18.8729 9.88999C18.639 9.88959 18.405 9.88856 18.1711 9.88739C17.932 9.88631 17.6928 9.88583 17.4536 9.8853C16.9852 9.88418 16.5168 9.88238 16.0483 9.88017C16.0484 9.91719 16.0485 9.95421 16.0486 9.99236C16.0508 10.8942 16.0525 11.796 16.0536 12.6978C16.0541 13.1339 16.0548 13.57 16.056 14.0061C16.057 14.3863 16.0576 14.7666 16.0579 15.1468C16.058 15.348 16.0583 15.5492 16.0591 15.7505C16.0597 15.9401 16.06 16.1297 16.0598 16.3193C16.0598 16.4217 16.0604 16.524 16.061 16.6263C16.059 17.4731 16.059 17.4731 15.7851 17.787C15.7571 17.8204 15.7292 17.8538 15.7004 17.8883C15.4188 18.1281 15.1423 18.162 14.7917 18.1592C14.7487 18.1595 14.7056 18.1597 14.6613 18.16C14.5199 18.1607 14.3786 18.1603 14.2372 18.1597C14.1385 18.1598 14.0397 18.16 13.9409 18.1602C13.7343 18.1604 13.5277 18.1601 13.321 18.1593C13.0567 18.1584 12.7924 18.159 12.5281 18.1599C12.3242 18.1605 12.1204 18.1603 11.9165 18.1599C11.8191 18.1598 11.7216 18.1599 11.6242 18.1603C11.4878 18.1607 11.3515 18.1601 11.2151 18.1592C11.1552 18.1597 11.1552 18.1597 11.0941 18.1602C10.7886 18.1565 10.5484 18.0944 10.3064 17.8883C10.2645 17.8381 10.2645 17.8381 10.2217 17.787C10.1788 17.7379 10.1788 17.7379 10.1351 17.6877C9.90987 17.3052 9.94456 16.8572 9.94693 16.4252C9.94696 16.3536 9.94695 16.282 9.94689 16.2104C9.94686 16.0172 9.94745 15.824 9.94816 15.6308C9.9488 15.4285 9.94886 15.2262 9.94898 15.0238C9.94929 14.6412 9.95013 14.2586 9.95115 13.8759C9.95228 13.4401 9.95284 13.0042 9.95335 12.5684C9.95441 11.6723 9.95619 10.7762 9.95846 9.88017C9.90913 9.8804 9.8598 9.88063 9.80898 9.88087C9.34309 9.88301 8.8772 9.88459 8.4113 9.88562C8.17181 9.88616 7.93231 9.88691 7.69282 9.8881C7.4615 9.88925 7.23018 9.88988 6.99885 9.89015C6.9108 9.89034 6.82275 9.89072 6.7347 9.89129C6.61093 9.89206 6.48718 9.89216 6.36341 9.89211C6.32738 9.89249 6.29135 9.89287 6.25423 9.89326C5.8376 9.8915 5.52738 9.80813 5.22354 9.50743C4.99886 9.24509 4.968 8.98176 4.96484 8.64544C5.01154 8.3384 5.18478 8.12554 5.38483 7.90469C5.40925 7.87763 5.43368 7.85057 5.45885 7.8227C5.75113 7.50089 6.05209 7.18788 6.35344 6.87526C6.41737 6.80875 6.48129 6.74223 6.5452 6.6757C6.71692 6.49703 6.8888 6.31852 7.06073 6.14007C7.16839 6.02833 7.27602 5.91655 7.38364 5.80477C7.72115 5.45421 8.05876 5.10376 8.39651 4.75347C8.7851 4.35045 9.17335 3.94709 9.56132 3.54343C9.86241 3.2302 10.1638 2.91728 10.4654 2.60458C10.6451 2.41828 10.8246 2.23186 11.0039 2.04513C11.1722 1.86978 11.3409 1.69482 11.5099 1.52013C11.5716 1.45617 11.6332 1.39207 11.6947 1.32783C12.3865 0.605309 13.0374 0.1163 13.8889 0.900212Z" fill="#FF5A29"/>
</svg>
