<svg width="40" height="40" viewBox="0 0 40 40" fill="none" xmlns="http://www.w3.org/2000/svg">
<rect width="40" height="40" rx="20" fill="#735DFF" fill-opacity="0.15"/>
<path d="M18.9921 22.805C19.9973 22.1358 20.7605 21.1609 21.1687 20.0244C21.577 18.8879 21.6087 17.6502 21.2591 16.4944C20.9095 15.3385 20.1973 14.3258 19.2276 13.6061C18.258 12.8863 17.0825 12.4977 15.8749 12.4977C14.6674 12.4977 13.4918 12.8863 12.5222 13.6061C11.5526 14.3258 10.8403 15.3385 10.4908 16.4944C10.1412 17.6502 10.1729 18.8879 10.5811 20.0244C10.9894 21.1609 11.7525 22.1358 12.7577 22.805C10.9394 23.4751 9.38659 24.7152 8.33086 26.3403C8.27538 26.4227 8.23684 26.5154 8.21748 26.6129C8.19813 26.7104 8.19834 26.8108 8.21812 26.9082C8.23789 27.0056 8.27683 27.0981 8.33268 27.1803C8.38852 27.2625 8.46014 27.3328 8.5434 27.3871C8.62665 27.4414 8.71986 27.4787 8.81762 27.4966C8.91538 27.5146 9.01573 27.5129 9.11285 27.4917C9.20996 27.4706 9.3019 27.4303 9.38332 27.3733C9.46473 27.3163 9.53401 27.2437 9.58711 27.1597C10.2681 26.1123 11.1999 25.2516 12.298 24.6558C13.3961 24.0599 14.6256 23.7479 15.8749 23.7479C17.1242 23.7479 18.3538 24.0599 19.4518 24.6558C20.5499 25.2516 21.4817 26.1123 22.1627 27.1597C22.2727 27.3231 22.4427 27.4368 22.6358 27.476C22.8289 27.5152 23.0297 27.4768 23.1947 27.3692C23.3598 27.2615 23.4758 27.0932 23.5178 26.9007C23.5598 26.7082 23.5243 26.5068 23.419 26.3403C22.3633 24.7152 20.8104 23.4751 18.9921 22.805ZM11.7499 18.125C11.7499 17.3091 11.9919 16.5116 12.4451 15.8332C12.8984 15.1549 13.5426 14.6262 14.2964 14.314C15.0501 14.0017 15.8795 13.9201 16.6797 14.0792C17.4798 14.2384 18.2148 14.6313 18.7917 15.2081C19.3686 15.785 19.7615 16.52 19.9207 17.3202C20.0798 18.1204 19.9981 18.9498 19.6859 19.7035C19.3737 20.4573 18.845 21.1015 18.1667 21.5548C17.4883 22.008 16.6908 22.25 15.8749 22.25C14.7813 22.2487 13.7328 21.8137 12.9595 21.0404C12.1862 20.2671 11.7512 19.2186 11.7499 18.125ZM31.4506 27.3781C31.284 27.4867 31.081 27.5247 30.8864 27.4838C30.6918 27.4428 30.5214 27.3262 30.4127 27.1597C29.7326 26.1116 28.8008 25.2506 27.7025 24.655C26.6042 24.0594 25.3743 23.7483 24.1249 23.75C23.926 23.75 23.7352 23.6709 23.5946 23.5303C23.4539 23.3896 23.3749 23.1989 23.3749 23C23.3749 22.8011 23.4539 22.6103 23.5946 22.4696C23.7352 22.329 23.926 22.25 24.1249 22.25C24.7324 22.2494 25.3322 22.1147 25.8816 21.8554C26.431 21.5961 26.9163 21.2187 27.3029 20.7501C27.6895 20.2815 27.9678 19.7334 28.118 19.1448C28.2682 18.5561 28.2865 17.9416 28.1716 17.3451C28.0568 16.7486 27.8116 16.1848 27.4536 15.694C27.0956 15.2032 26.6337 14.7976 26.1007 14.5061C25.5678 14.2145 24.977 14.0443 24.3707 14.0075C23.7643 13.9708 23.1573 14.0684 22.5931 14.2934C22.501 14.3332 22.402 14.3541 22.3018 14.3549C22.2016 14.3558 22.1022 14.3365 22.0095 14.2983C21.9169 14.2601 21.8328 14.2037 21.7623 14.1325C21.6918 14.0612 21.6363 13.9766 21.5991 13.8835C21.5619 13.7905 21.5437 13.6909 21.5456 13.5907C21.5475 13.4905 21.5695 13.3916 21.6102 13.3001C21.651 13.2085 21.7097 13.126 21.7828 13.0575C21.856 12.989 21.9421 12.9359 22.0362 12.9012C23.3275 12.3862 24.7639 12.3677 26.0681 12.8492C27.3723 13.3307 28.452 14.2782 29.0989 15.5088C29.7458 16.7394 29.914 18.166 29.5711 19.5133C29.2283 20.8607 28.3986 22.0333 27.2421 22.805C29.0604 23.4751 30.6133 24.7152 31.669 26.3403C31.7776 26.5069 31.8156 26.7098 31.7747 26.9044C31.7337 27.099 31.6171 27.2694 31.4506 27.3781Z" fill="#735DFF"/>
</svg>
