<svg width="40" height="41" viewBox="0 0 40 41" fill="none" xmlns="http://www.w3.org/2000/svg">
<rect y="0.689941" width="40" height="40" rx="20" fill="#FF5A29" fill-opacity="0.15"/>
<rect x="0.5" y="1.18994" width="39" height="39" rx="19.5" stroke="#FF5A29" stroke-opacity="0.25"/>
<path opacity="0.2" d="M20.75 18.8149C20.75 19.7791 20.4641 20.7217 19.9284 21.5233C19.3927 22.325 18.6314 22.9499 17.7406 23.3189C16.8498 23.6878 15.8696 23.7844 14.9239 23.5963C13.9783 23.4082 13.1096 22.9439 12.4279 22.2621C11.7461 21.5803 11.2818 20.7117 11.0937 19.766C10.9056 18.8203 11.0021 17.8401 11.3711 16.9494C11.7401 16.0586 12.3649 15.2972 13.1666 14.7615C13.9683 14.2259 14.9108 13.9399 15.875 13.9399C17.1679 13.9399 18.4079 14.4536 19.3221 15.3678C20.2364 16.282 20.75 17.522 20.75 18.8149Z" fill="#FF5A29"/>
<path d="M18.9921 23.4948C19.9973 22.8256 20.7605 21.8507 21.1687 20.7142C21.577 19.5777 21.6087 18.3401 21.2591 17.1842C20.9095 16.0283 20.1973 15.0156 19.2276 14.2959C18.258 13.5761 17.0825 13.1875 15.8749 13.1875C14.6674 13.1875 13.4918 13.5761 12.5222 14.2959C11.5526 15.0156 10.8403 16.0283 10.4908 17.1842C10.1412 18.3401 10.1729 19.5777 10.5811 20.7142C10.9894 21.8507 11.7525 22.8256 12.7577 23.4948C10.9394 24.1649 9.38659 25.4051 8.33086 27.0301C8.27538 27.1126 8.23684 27.2052 8.21748 27.3027C8.19813 27.4002 8.19834 27.5006 8.21812 27.598C8.23789 27.6954 8.27683 27.7879 8.33268 27.8701C8.38852 27.9524 8.46014 28.0227 8.5434 28.077C8.62665 28.1313 8.71986 28.1685 8.81762 28.1864C8.91538 28.2044 9.01573 28.2027 9.11285 28.1816C9.20996 28.1604 9.3019 28.1201 9.38332 28.0631C9.46473 28.0061 9.53401 27.9335 9.58711 27.8495C10.2681 26.8021 11.1999 25.9414 12.298 25.3456C13.3961 24.7498 14.6256 24.4377 15.8749 24.4377C17.1242 24.4377 18.3538 24.7498 19.4518 25.3456C20.5499 25.9414 21.4817 26.8021 22.1627 27.8495C22.2727 28.013 22.4427 28.1266 22.6358 28.1658C22.8289 28.205 23.0297 28.1666 23.1947 28.059C23.3598 27.9513 23.4758 27.783 23.5178 27.5905C23.5598 27.398 23.5243 27.1967 23.419 27.0301C22.3633 25.4051 20.8104 24.1649 18.9921 23.4948ZM11.7499 18.8148C11.7499 17.9989 11.9919 17.2014 12.4451 16.5231C12.8984 15.8447 13.5426 15.316 14.2964 15.0038C15.0501 14.6916 15.8795 14.6099 16.6797 14.769C17.4798 14.9282 18.2148 15.3211 18.7917 15.898C19.3686 16.4749 19.7615 17.2099 19.9207 18.01C20.0798 18.8102 19.9981 19.6396 19.6859 20.3934C19.3737 21.1471 18.845 21.7913 18.1667 22.2446C17.4883 22.6979 16.6908 22.9398 15.8749 22.9398C14.7813 22.9385 13.7328 22.5035 12.9595 21.7302C12.1862 20.9569 11.7512 19.9084 11.7499 18.8148ZM31.4506 28.0679C31.284 28.1765 31.081 28.2146 30.8864 28.1736C30.6918 28.1326 30.5214 28.016 30.4127 27.8495C29.7326 26.8015 28.8008 25.9404 27.7025 25.3448C26.6042 24.7492 25.3743 24.4381 24.1249 24.4398C23.926 24.4398 23.7352 24.3608 23.5946 24.2201C23.4539 24.0795 23.3749 23.8887 23.3749 23.6898C23.3749 23.4909 23.4539 23.3001 23.5946 23.1595C23.7352 23.0188 23.926 22.9398 24.1249 22.9398C24.7324 22.9392 25.3322 22.8045 25.8816 22.5452C26.431 22.2859 26.9163 21.9085 27.3029 21.4399C27.6895 20.9714 27.9678 20.4232 28.118 19.8346C28.2682 19.246 28.2865 18.6314 28.1716 18.0349C28.0568 17.4384 27.8116 16.8746 27.4536 16.3838C27.0956 15.8931 26.6337 15.4874 26.1007 15.1959C25.5678 14.9043 24.977 14.7341 24.3707 14.6973C23.7643 14.6606 23.1573 14.7582 22.5931 14.9832C22.501 15.023 22.402 15.0439 22.3018 15.0448C22.2016 15.0456 22.1022 15.0264 22.0095 14.9882C21.9169 14.9499 21.8328 14.8935 21.7623 14.8223C21.6918 14.751 21.6363 14.6664 21.5991 14.5733C21.5619 14.4803 21.5437 14.3807 21.5456 14.2805C21.5475 14.1803 21.5695 14.0815 21.6102 13.9899C21.651 13.8983 21.7097 13.8158 21.7828 13.7473C21.856 13.6788 21.9421 13.6257 22.0362 13.591C23.3275 13.076 24.7639 13.0575 26.0681 13.539C27.3723 14.0205 28.452 14.968 29.0989 16.1986C29.7458 17.4292 29.914 18.8558 29.5711 20.2031C29.2283 21.5505 28.3986 22.7231 27.2421 23.4948C29.0604 24.1649 30.6133 25.4051 31.669 27.0301C31.7776 27.1967 31.8156 27.3996 31.7747 27.5942C31.7337 27.7889 31.6171 27.9592 31.4506 28.0679Z" fill="#FF5A29"/>
</svg>
