<svg width="40" height="40" viewBox="0 0 40 40" fill="none" xmlns="http://www.w3.org/2000/svg">
<rect width="40" height="40" rx="20" fill="#0C9CFC" fill-opacity="0.15"/>
<path d="M24 29V27C24 25.9391 23.5786 24.9217 22.8284 24.1716C22.0783 23.4214 21.0609 23 20 23H14C12.9391 23 11.9217 23.4214 11.1716 24.1716C10.4214 24.9217 10 25.9391 10 27V29" stroke="#0C9CFC" stroke-width="2" stroke-linecap="round" stroke-linejoin="round"/>
<path d="M17 19C19.2091 19 21 17.2091 21 15C21 12.7909 19.2091 11 17 11C14.7909 11 13 12.7909 13 15C13 17.2091 14.7909 19 17 19Z" stroke="#0C9CFC" stroke-width="2" stroke-linecap="round" stroke-linejoin="round"/>
<path d="M27 21C28.1046 21 29 20.1046 29 19C29 17.8954 28.1046 17 27 17C25.8954 17 25 17.8954 25 19C25 20.1046 25.8954 21 27 21Z" stroke="#0C9CFC" stroke-width="2" stroke-linecap="round" stroke-linejoin="round"/>
<path d="M27 16V17" stroke="#0C9CFC" stroke-width="2" stroke-linecap="round" stroke-linejoin="round"/>
<path d="M27 21V22" stroke="#0C9CFC" stroke-width="2" stroke-linecap="round" stroke-linejoin="round"/>
<path d="M29.6 17.5L28.73 18" stroke="#0C9CFC" stroke-width="2" stroke-linecap="round" stroke-linejoin="round"/>
<path d="M25.2699 20L24.3999 20.5" stroke="#0C9CFC" stroke-width="2" stroke-linecap="round" stroke-linejoin="round"/>
<path d="M29.6 20.5L28.73 20" stroke="#0C9CFC" stroke-width="2" stroke-linecap="round" stroke-linejoin="round"/>
<path d="M25.2699 18L24.3999 17.5" stroke="#0C9CFC" stroke-width="2" stroke-linecap="round" stroke-linejoin="round"/>
</svg>
