<svg width="40" height="41" viewBox="0 0 40 41" fill="none" xmlns="http://www.w3.org/2000/svg">
<rect y="0.439941" width="40" height="40" rx="20" fill="#735DFF" fill-opacity="0.15"/>
<path d="M20 15.4399C19.3099 15.4399 18.6589 15.5701 18.0469 15.8306C17.4479 16.091 16.9206 16.4491 16.4648 16.9048C16.0091 17.3605 15.651 17.8879 15.3906 18.4868C15.1302 19.0988 15 19.7498 15 20.4399C15 21.13 15.1302 21.7811 15.3906 22.3931C15.651 22.992 16.0091 23.5194 16.4648 23.9751C16.9206 24.4308 17.4479 24.7889 18.0469 25.0493C18.6589 25.3097 19.3099 25.4399 20 25.4399C20.6901 25.4399 21.3411 25.3097 21.9531 25.0493C22.5521 24.7889 23.0794 24.4308 23.5352 23.9751C23.9909 23.5194 24.349 22.992 24.6094 22.3931C24.8698 21.7811 25 21.13 25 20.4399C25 19.7498 24.8698 19.0988 24.6094 18.4868C24.349 17.8879 23.9909 17.3605 23.5352 16.9048C23.0794 16.4491 22.5521 16.091 21.9531 15.8306C21.3411 15.5701 20.6901 15.4399 20 15.4399ZM20 23.7798C19.0755 23.7798 18.2878 23.4543 17.6367 22.8032C16.9857 22.1522 16.6602 21.3644 16.6602 20.4399C16.6602 19.5155 16.9857 18.7277 17.6367 18.0767C18.2878 17.4256 19.0755 17.1001 20 17.1001C20.9245 17.1001 21.7122 17.4256 22.3633 18.0767C23.0143 18.7277 23.3398 19.5155 23.3398 20.4399C23.3398 21.3644 23.0143 22.1522 22.3633 22.8032C21.7122 23.4543 20.9245 23.7798 20 23.7798ZM20 12.1001C18.8672 12.1001 17.7995 12.3215 16.7969 12.7642C15.7812 13.2199 14.8958 13.8254 14.1406 14.5806C13.3854 15.3358 12.7799 16.2212 12.3242 17.2368C11.8815 18.2394 11.6602 19.3071 11.6602 20.4399C11.6602 21.5728 11.8815 22.6405 12.3242 23.6431C12.7799 24.6587 13.3854 25.5441 14.1406 26.2993C14.8958 27.0545 15.7812 27.66 16.7969 28.1157C17.7995 28.5584 18.8672 28.7798 20 28.7798C21.1328 28.7798 22.2005 28.5584 23.2031 28.1157C24.2188 27.66 25.1042 27.0545 25.8594 26.2993C26.6146 25.5441 27.2201 24.6587 27.6758 23.6431C28.1185 22.6405 28.3398 21.5728 28.3398 20.4399C28.3398 19.3071 28.1185 18.2394 27.6758 17.2368C27.2201 16.2212 26.6146 15.3358 25.8594 14.5806C25.1042 13.8254 24.2188 13.2199 23.2031 12.7642C22.2005 12.3215 21.1328 12.1001 20 12.1001ZM20 27.1001C19.1016 27.1001 18.2487 26.9243 17.4414 26.5728C16.6341 26.2212 15.9245 25.7394 15.3125 25.1274C14.7005 24.5155 14.2188 23.8058 13.8672 22.9985C13.5156 22.1912 13.3398 21.3384 13.3398 20.4399C13.3398 19.5415 13.5156 18.6886 13.8672 17.8813C14.2188 17.0741 14.7005 16.3644 15.3125 15.7524C15.9245 15.1405 16.6341 14.6587 17.4414 14.3071C18.2487 13.9556 19.1016 13.7798 20 13.7798C20.8984 13.7798 21.7513 13.9556 22.5586 14.3071C23.3659 14.6587 24.0755 15.1405 24.6875 15.7524C25.2995 16.3644 25.7812 17.0741 26.1328 17.8813C26.4844 18.6886 26.6602 19.5415 26.6602 20.4399C26.6602 21.3384 26.4844 22.1912 26.1328 22.9985C25.7812 23.8058 25.2995 24.5155 24.6875 25.1274C24.0755 25.7394 23.3659 26.2212 22.5586 26.5728C21.7513 26.9243 20.8984 27.1001 20 27.1001ZM20 18.7798C19.5443 18.7798 19.1536 18.9425 18.8281 19.2681C18.5026 19.5936 18.3398 19.9842 18.3398 20.4399C18.3398 20.8957 18.5026 21.2863 18.8281 21.6118C19.1536 21.9373 19.5443 22.1001 20 22.1001C20.4557 22.1001 20.8464 21.9373 21.1719 21.6118C21.4974 21.2863 21.6602 20.8957 21.6602 20.4399C21.6602 19.9842 21.4974 19.5936 21.1719 19.2681C20.8464 18.9425 20.4557 18.7798 20 18.7798Z" fill="#735DFF"/>
</svg>
